<?xml version="1.0" encoding="utf-8"?>
<svg version="1.1" id="Layer_1" x="0px" y="0px" width="100%" viewBox="0 0 425 550" enable-background="new 0 0 425 550" xmlns="http://www.w3.org/2000/svg">
  <defs/>
  <g transform="matrix(0.1, 0, 0, -0.1, 0.820546, 550.886047)" fill="#000000" stroke="none">
    <path d="M1404 5216 c-3 -7 11 -55 31 -107 54 -139 111 -311 141 -424 50 -190&#10;101 -323 161 -414 67 -102 69 -125 23 -208 -61 -109 -63 -114 -52 -125 7 -7&#10;31 -2 75 16 36 14 68 26 70 26 3 0 16 -17 28 -37 13 -21 28 -44 33 -52 7 -11&#10;5 -13 -10 -7 -10 5 -57 12 -103 18 -46 5 -113 20 -149 34 -71 26 -80 28 -101&#10;15 -11 -7 -12 -15 -3 -38 6 -15 21 -66 33 -112 24 -92 63 -148 119 -171 17 -7&#10;30 -15 30 -19 0 -4 -53 -60 -119 -124 -119 -118 -131 -137 -131 -204 0 -14&#10;-12 -52 -26 -84 -22 -48 -26 -69 -22 -120 5 -67 -2 -57 107 -150 17 -15 31&#10;-31 31 -36 0 -6 -35 -13 -79 -17 -120 -10 -166 -30 -239 -103 -55 -54 -69 -63&#10;-100 -63 -21 0 -54 -3 -74 -6 -36 -6 -37 -8 -40 -53 l-3 -46 -55 -6 c-70 -8&#10;-200 -56 -298 -110 l-75 -41 7 53 c15 125 19 335 7 387 -17 68 -51 104 -93&#10;100 -31 -3 -33 -1 -40 37 -4 22 -7 59 -7 82 -1 40 3 47 74 116 90 88 94 106&#10;39 205 l-37 66 9 145 c4 80 8 199 9 265 0 150 -6 157 -91 99 -32 -22 -67 -53&#10;-76 -69 -20 -34 -26 -144 -14 -269 4 -45 4 -75 -1 -68 -14 20 -55 30 -94 23&#10;-52 -10 -127 -56 -149 -93 -11 -17 -33 -35 -52 -41 -47 -16 -78 -67 -78 -130&#10;1 -85 15 -128 57 -166 21 -19 48 -57 61 -85 13 -27 33 -60 44 -72 18 -20 20&#10;-32 16 -121 -3 -90 -6 -102 -31 -131 -14 -17 -32 -51 -38 -74 -15 -51 -15&#10;-198 -1 -264 24 -109 24 -110 -7 -105 -44 6 -63 -20 -56 -77 12 -84 25 -120&#10;53 -141 19 -16 26 -29 24 -49 -4 -35 48 -106 93 -128 27 -13 35 -23 35 -43 0&#10;-35 25 -67 58 -74 24 -6 104 10 155 29 13 6 17 2 17 -18 0 -14 8 -33 17 -43&#10;36 -36 209 2 387 85 49 22 93 41 99 41 6 0 7 -41 3 -112 -4 -62 -9 -151 -12&#10;-198 -14 -239 -23 -297 -97 -590 -41 -162 -80 -337 -87 -388 -11 -86 -10 -94&#10;6 -106 16 -12 16 -17 1 -77 -15 -59 -37 -297 -37 -403 0 -34 4 -46 15 -46 19&#10;0 21 14 34 225 6 99 16 199 22 223 10 37 15 43 33 38 142 -41 513 -56 766 -31&#10;437 43 611 43 805 0 l130 -28 24 -71 c40 -118 81 -279 81 -318 0 -32 3 -38 21&#10;-38 20 0 21 3 15 56 -8 68 -37 179 -77 295 -35 102 -32 139 10 139 36 0 86 33&#10;113 75 13 19 32 38 42 41 10 4 42 20 70 37 36 21 66 31 101 32 35 1 74 14 128&#10;40 64 31 93 54 160 125 60 64 91 89 116 95 45 10 110 70 134 125 25 57 27 165&#10;4 235 -18 54 -45 95 -144 223 -35 45 -63 90 -63 102 0 56 -140 259 -270 392&#10;l-105 107 18 34 c21 42 16 57 -27 81 -19 10 -49 33 -67 52 -31 32 -32 36 -30&#10;107 3 117 -29 218 -91 283 l-29 31 25 7 c36 9 55 43 64 112 l7 59 65 5 c84 7&#10;110 21 110 62 0 17 5 59 11 92 l10 61 90 -3 c113 -5 217 23 261 70 40 43 34&#10;66 -25 89 -26 11 -73 38 -103 62 -145 111 -165 126 -176 131 -15 6 183 202&#10;252 249 25 17 84 50 131 74 48 23 108 60 134 83 25 22 59 47 73 54 37 19 140&#10;129 185 196 43 65 116 143 247 261 124 113 187 229 123 229 -10 0 -61 -34&#10;-113 -75 -64 -50 -122 -86 -178 -110 -119 -50 -212 -117 -346 -247 -49 -49&#10;-69 -61 -130 -79 -137 -40 -295 -117 -465 -228 l-24 -15 6 79 c9 106 19 140&#10;67 214 22 34 40 66 40 70 0 17 -63 31 -137 31 -67 0 -76 -2 -98 -26 -14 -15&#10;-30 -47 -37 -72 l-13 -45 -46 69 c-60 91 -200 256 -240 285 -46 33 -119 36&#10;-199 9 -68 -23 -110 -45 -110 -59 0 -4 32 -29 70 -56 70 -48 87 -69 33 -42&#10;-15 8 -67 27 -114 42 l-86 27 -72 106 c-39 59 -88 128 -108 154 -21 26 -55 87&#10;-76 135 -51 116 -95 183 -181 271 -39 40 -97 100 -128 133 -58 59 -102 77&#10;-114 45z m-858 -1283 c-3 -38 -8 -135 -12 -216 -5 -124 -9 -147 -21 -143 -8 3&#10;-29 0 -47 -8 l-34 -14 1 56 c1 32 -2 94 -7 138 -5 45 -6 102 -2 128 6 40 14&#10;52 58 86 27 22 54 40 60 40 6 0 8 -25 4 -67z m1534 16 c-8 -5 -32 -19 -52 -30&#10;-21 -10 -38 -23 -38 -28 0 -4 43 -11 95 -14 53 -4 104 -11 115 -17 26 -14 27&#10;-75 1 -113 l-18 -28 -6 42 c-8 57 -36 84 -90 84 -129 -1 -287 -165 -287 -298&#10;0 -61 10 -78 64 -105 l39 -19 -44 -6 c-24 -4 -98 -9 -164 -13 l-120 -7 103&#10;108 c56 59 114 128 129 154 14 25 37 57 49 71 13 14 47 61 76 105 54 81 104&#10;125 142 125 17 0 18 -2 6 -11z m-419 -146 c28 -58 80 -113 107 -113 14 0 14&#10;-2 6 -24 -8 -20 -27 -20 -66 0 -56 29 -73 61 -115 219 -11 41 37 -16 68 -82z&#10;m147 63 c45 -6 83 -15 84 -19 1 -16 -85 -127 -99 -127 -38 0 -93 65 -122 143&#10;-11 28 -11 29 21 22 18 -4 70 -13 116 -19z m331 -60 c7 -8 15 -40 18 -70 5&#10;-52 3 -60 -35 -125 -23 -38 -65 -90 -93 -115 -43 -38 -58 -46 -91 -46 -39 0&#10;-96 23 -110 44 -32 48 22 191 96 251 86 69 185 97 215 61z m625 -2 c14 -5 13&#10;-9 -5 -33 -11 -14 -28 -36 -37 -49 l-17 -23 -26 56 -26 55 47 0 c27 0 55 -3&#10;64 -6z m-242 -35 c23 -12 68 -48 100 -79 l58 -58 -14 -40 c-8 -22 -18 -76 -21&#10;-120 -8 -92 -6 -95 78 -107 37 -6 45 -10 37 -20 -16 -19 21 -51 100 -87 56&#10;-26 83 -31 195 -39 72 -4 164 -5 205 0 82 9 103 2 77 -27 -29 -32 -132 -57&#10;-227 -56 -113 2 -195 31 -290 106 -40 31 -125 69 -134 61 -14 -14 -4 -33 19&#10;-39 14 -4 25 -9 23 -13 -2 -3 -15 -29 -30 -57 -34 -65 -55 -148 -64 -254 -8&#10;-107 -22 -143 -63 -160 -17 -7 -91 -27 -164 -45 -92 -22 -132 -36 -132 -46 0&#10;-10 10 -13 33 -11 l32 2 -30 -41 c-23 -32 -30 -53 -30 -88 l0 -46 -55 3 c-90&#10;6 -248 -24 -339 -64 -63 -28 -97 -37 -152 -39 l-70 -3 -12 44 c-20 75 -16 137&#10;11 163 13 12 34 44 47 70 l23 49 84 7 c48 4 137 2 205 -4 67 -6 123 -9 126 -7&#10;2 3 2 12 -1 20 -7 19 -125 31 -287 29 l-125 -2 -47 34 c-28 21 -60 58 -82 94&#10;-31 53 -34 64 -25 95 5 20 21 49 34 65 28 33 31 41 12 41 -18 0 -55 -52 -71&#10;-98 l-13 -37 -42 41 c-52 52 -54 91 -11 192 17 39 30 85 30 101 0 19 5 30 12&#10;28 6 -1 14 7 16 18 6 30 20 35 107 35 113 0 259 17 300 34 56 24 142 113 197&#10;205 58 97 81 130 88 131 3 0 11 -13 18 -30 8 -16 18 -30 23 -30 5 0 30 16 56&#10;36 52 40 98 63 126 64 10 0 37 -10 59 -21z m-2168 -185 c9 -3 16 -12 16 -20 0&#10;-11 -13 -14 -48 -13 -63 3 -72 -4 -72 -51 0 -53 14 -81 55 -108 47 -30 47 -62&#10;0 -88 -43 -23 -57 -16 -100 46 -41 61 -47 145 -13 176 53 49 122 73 162 58z&#10;m171 -96 c14 -29 36 -73 50 -98 14 -25 25 -51 25 -58 0 -8 -33 -49 -74 -91&#10;-40 -42 -76 -87 -79 -100 -3 -13 1 -66 9 -119 8 -52 14 -97 14 -99 0 -2 -11&#10;-8 -24 -13 -19 -7 -29 -23 -40 -61 -9 -29 -16 -66 -16 -82 0 -22 -4 -28 -15&#10;-23 -8 3 -21 9 -29 12 -8 3 -23 -3 -34 -14 -18 -18 -19 -18 -52 21 -32 38 -33&#10;42 -31 115 1 42 6 96 10 119 8 40 7 44 -17 56 -14 6 -37 34 -50 61 l-24 48 35&#10;29 c20 16 39 38 42 49 4 11 15 20 26 20 16 0 19 -7 19 -42 0 -52 31 -108 60&#10;-108 25 0 25 5 0 37 -14 17 -20 41 -20 73 0 40 4 49 26 61 29 15 47 50 38 74&#10;-5 12 3 15 42 15 54 0 80 12 69 30 -5 8 -21 10 -52 5 -79 -12 -153 32 -153 91&#10;0 24 1 24 68 18 49 -5 76 -2 102 9 19 8 39 16 43 16 4 1 19 -23 32 -51z m2492&#10;-60 c28 -10 71 -34 95 -54 24 -19 64 -51 91 -71 26 -21 47 -41 47 -46 0 -6&#10;-64 -7 -152 -5 -145 5 -157 7 -218 35 -36 17 -74 37 -84 45 -18 14 -16 15 24&#10;22 24 4 59 14 78 23 30 14 33 20 30 50 -4 37 -8 37 89 1z m-2877 -19 c7 -23&#10;23 -60 37 -82 30 -47 25 -78 -18 -110 -57 -42 -98 8 -100 122 -1 56 2 76 16&#10;91 30 33 53 25 65 -21z m427 -477 c25 -41 37 -166 25 -264 -6 -51 -14 -130&#10;-17 -176 -4 -46 -12 -97 -20 -115 -21 -52 -23 -101 -3 -105 11 -2 18 6 23 30&#10;4 18 14 45 21 60 13 24 17 26 46 17 18 -5 54 -9 80 -9 38 0 52 -5 74 -26 26&#10;-27 27 -27 136 -21 l111 6 -8 -172 c-4 -95 -9 -175 -11 -178 -4 -7 -98 -53&#10;-193 -93 -35 -16 -110 -40 -167 -54 -99 -24 -106 -25 -122 -8 -16 16 -16 18 8&#10;36 14 11 30 20 36 20 7 0 22 9 35 19 19 16 21 22 12 32 -10 10 -22 8 -60 -9&#10;-27 -12 -89 -31 -140 -43 -76 -18 -95 -20 -108 -9 -39 33 11 85 118 121 29 10&#10;52 24 52 31 0 27 -52 18 -130 -21 -76 -38 -81 -39 -111 -25 -17 8 -41 29 -54&#10;45 -19 27 -21 34 -9 55 12 22 9 27 -29 60 -42 35 -62 80 -62 137 0 30 17 35&#10;50 15 39 -25 43 0 20 138 -24 140 -22 252 6 306 18 36 37 36 63 0 18 -25 26&#10;-53 46 -144 4 -19 12 -28 25 -28 18 0 19 5 14 58 -4 38 -2 67 6 81 11 22 13&#10;22 31 6 10 -10 21 -26 25 -37 4 -13 13 -18 27 -16 21 3 22 8 20 88 -1 68 0 75&#10;6 35 3 -27 10 -56 14 -62 10 -16 39 -17 55 -1 16 16 15 84 -3 132 -12 34 -12&#10;44 0 73 16 37 43 44 62 15z m1064 -132 c23 -22 45 -40 50 -40 14 0 10 -42 -6&#10;-70 -8 -14 -14 -19 -15 -12 0 20 -28 14 -40 -9 -29 -53 -20 -250 12 -270 6 -4&#10;-13 -19 -41 -34 -33 -18 -51 -35 -51 -47 0 -23 25 -23 58 1 31 21 120 56 127&#10;50 2 -3 -20 -24 -50 -48 -55 -44 -70 -71 -39 -71 9 0 49 24 88 54 39 29 85 61&#10;101 69 130 70 271 102 412 94 51 -3 95 -1 98 4 3 4 -1 19 -9 31 -28 43 8 128&#10;76 178 43 32 134 53 171 40 17 -5 45 -10 63 -10 41 0 91 -49 129 -125 31 -62&#10;44 -137 24 -133 -10 2 -15 -14 -19 -62 -7 -86 -39 -129 -138 -179 -134 -68&#10;-518 -176 -842 -236 -47 -9 -128 -32 -180 -52 -78 -30 -106 -47 -154 -92 -32&#10;-31 -66 -72 -77 -91 l-18 -35 -1 53 c0 37 9 77 30 129 35 86 37 106 13 101&#10;-21 -4 -72 -121 -82 -187 l-7 -46 -17 49 c-25 74 -31 162 -13 226 15 58 8 83&#10;-18 61 -9 -7 -18 -29 -22 -49 l-7 -35 -23 46 c-37 73 -54 152 -61 282 -10 202&#10;31 312 148 397 43 31 68 56 65 64 -8 20 23 33 101 43 94 13 116 8 164 -39z&#10;m-1141 -33 c0 -10 -4 -15 -10 -12 -5 3 -10 18 -10 33 0 21 2 24 10 12 5 -8 10&#10;-23 10 -33z m545 -282 c4 -46 5 -91 2 -98 -6 -16 -72 -27 -153 -27 -41 0 -54&#10;4 -54 15 0 8 11 17 25 21 16 4 25 13 25 25 0 23 -22 24 -80 4 -45 -16 -99 -19&#10;-138 -8 -21 5 -17 10 38 39 119 63 246 110 307 113 20 1 22 -5 28 -84z m1858&#10;-377 c22 -18 81 -75 132 -126 114 -114 271 -339 251 -359 -2 -3 -23 8 -45 23&#10;-32 20 -45 24 -53 16 -17 -17 24 -57 78 -78 24 -9 50 -26 57 -38 8 -11 46 -61&#10;86 -111 89 -112 117 -185 108 -282 -7 -70 -31 -119 -75 -154 l-27 -21 -5 32&#10;c-3 19 -15 39 -27 47 -21 14 -25 13 -53 -15 -32 -33 -37 -52 -18 -81 10 -17 4&#10;-28 -46 -85 -68 -78 -94 -97 -182 -137 -74 -34 -97 -28 -63 15 24 31 20 53&#10;-12 58 -19 3 -16 9 33 64 31 34 62 71 70 83 8 11 50 40 94 64 43 24 85 55 93&#10;69 20 35 8 58 -30 58 -25 0 -46 -14 -103 -68 -65 -62 -198 -143 -212 -130 -2&#10;3 7 20 22 37 33 40 26 61 -21 61 -20 0 -35 5 -35 12 0 6 24 37 54 68 48 50 55&#10;63 61 113 8 59 3 77 -21 77 -9 0 -14 -10 -14 -28 0 -43 -21 -66 -54 -58 -30 7&#10;-104 71 -95 81 4 3 27 1 53 -6 39 -10 50 -9 70 5 56 36 41 107 -51 243 -38 58&#10;-54 88 -41 79 12 -9 37 -16 54 -16 17 0 47 -6 65 -14 64 -26 76 -27 93 -11 24&#10;24 20 69 -13 133 -41 82 -66 110 -83 94 -10 -10 -10 -17 2 -35 27 -40 70 -130&#10;70 -143 0 -23 -34 -16 -70 16 -39 32 -70 39 -70 14 0 -15 -2 -15 -25 0 -31 21&#10;-45 20 -45 -1 0 -13 -14 -4 -44 30 -46 49 -63 57 -72 32 -4 -10 10 -33 38 -63&#10;25 -26 66 -80 92 -120 26 -39 52 -74 56 -77 5 -3 16 -28 25 -56 15 -44 15 -53&#10;3 -65 -12 -12 -21 -12 -63 1 -41 12 -56 24 -85 65 -19 28 -47 57 -61 65 -32&#10;17 -54 5 -46 -27 7 -25 61 -88 91 -105 22 -12 16 -43 -8 -43 -23 0 -116 80&#10;-157 134 -20 26 -52 79 -71 118 -40 78 -40 73 10 193 45 109 102 216 135 259&#10;27 34 140 126 154 126 3 0 24 -15 46 -32z m-1699 -102 c9 -19 20 -36 25 -38 4&#10;-2 11 -18 14 -36 6 -29 4 -33 -12 -30 -11 2 -32 -10 -49 -29 -24 -24 -33 -29&#10;-41 -19 -6 7 -8 15 -5 19 3 3 -5 13 -19 21 -36 24 -61 86 -34 86 6 0 25 14 40&#10;30 38 39 61 38 81 -4z m1067 -135 c21 -17 22 -21 11 -59 -16 -52 -89 -133&#10;-141 -157 -73 -33 -112 5 -76 75 29 56 122 102 150 74 13 -14 16 -12 26 10 23&#10;49 -6 69 -68 45 -15 -5 -24 -7 -20 -2 9 9 66 31 83 32 7 1 22 -7 35 -18z&#10;m-993 -357 c83 -28 228 -98 319 -156 51 -32 66 -38 78 -28 17 14 10 27 -78&#10;140 -44 55 -55 76 -43 78 33 7 146 -31 243 -83 97 -51 233 -148 233 -165 0 -9&#10;204 -193 220 -198 18 -6 10 24 -16 59 -28 38 -97 169 -92 175 10 9 130 -81&#10;182 -137 57 -61 58 -64 35 -67 -38 -6 -49 -21 -49 -68 0 -37 5 -46 33 -67 17&#10;-13 51 -29 74 -36 43 -12 67 -31 39 -31 -24 0 -109 -40 -133 -62 -16 -15 -23&#10;-33 -23 -59 0 -43 12 -55 66 -67 30 -7 35 -11 22 -17 -22 -9 -23 -43 -2 -73&#10;26 -38 71 -55 128 -48 l51 6 19 -66 c10 -35 16 -67 14 -70 -3 -3 -73 9 -154&#10;26 -148 31 -151 31 -368 25 -121 -3 -223 -8 -227 -11 -6 -4 -43 14 -93 44 -5&#10;3 44 20 108 39 65 18 123 36 129 40 20 12 -27 33 -77 33 -148 0 -676 78 -676&#10;100 0 4 19 13 43 20 93 28 237 93 237 108 0 16 -35 15 -335 -10 -91 -7 -163&#10;-8 -206 -2 l-65 9 38 155 c49 201 68 296 68 343 0 20 3 37 8 37 4 0 54 -27&#10;111 -60 75 -43 107 -57 112 -48 13 21 -74 116 -172 189 -25 19 -44 39 -42 45&#10;5 15 145 -10 241 -42z m1346 -124 c52 -61 123 -109 171 -117 25 -4 54 -19 77&#10;-39 20 -18 53 -36 73 -40 l36 -6 -51 -54 c-51 -54 -57 -68 -40 -94 6 -9 3 -24&#10;-8 -43 -18 -30 -143 -147 -158 -147 -5 0 -22 32 -39 72 -43 102 -77 146 -133&#10;169 l-47 20 6 127 c5 111 15 177 35 232 5 12 9 10 22 -10 10 -13 34 -45 56&#10;-70z m626 -300 c-33 -26 -48 -26 -25 0 10 11 25 20 34 20 12 0 9 -6 -9 -20z&#10;m-720 -26 c54 -23 70 -42 121 -151 36 -77 53 -103 67 -103 25 0 165 122 188&#10;165 10 19 22 35 27 35 4 0 0 -11 -9 -25 -14 -21 -15 -31 -6 -50 14 -31 39 -32&#10;95 -4 l42 21 -31 -33 c-69 -76 -93 -132 -60 -145 11 -4 13 -12 6 -30 -5 -13&#10;-7 -24 -4 -24 3 0 -35 -21 -83 -46 -59 -31 -104 -64 -138 -100 -40 -43 -57&#10;-54 -82 -54 -35 0 -51 27 -56 97 -3 53 -8 57 -43 38 -56 -29 -154 -9 -154 32&#10;0 16 86 57 143 67 33 6 38 4 49 -19 13 -29 38 -34 38 -7 0 9 -9 28 -19 41 -16&#10;21 -25 23 -102 22 -46 0 -104 -2 -128 -3 -32 -2 -46 1 -54 14 -18 27 23 61&#10;103 87 l70 23 55 -42 c34 -26 61 -40 71 -36 22 8 14 17 -78 86 -47 35 -102 66&#10;-131 75 -61 18 -87 40 -87 73 l0 24 78 -7 c42 -4 93 -13 112 -21z m850 -64 c0&#10;-33 -24 -50 -42 -32 -17 17 -1 62 22 62 16 0 20 -7 20 -30z"/>
    <path d="M2025 3691 c-46 -33 -88 -101 -83 -133 7 -49 71 -48 116 2 47 50 67&#10;97 56 128 -13 37 -42 38 -89 3z"/>
    <path d="M2345 3691 c-74 -45 -173 -200 -182 -285 -7 -59 26 -104 97 -133 94&#10;-38 157 -26 223 42 54 56 71 109 64 203 -8 128 -55 192 -139 192 -18 0 -47 -8&#10;-63 -19z m109 -13 c56 -25 94 -179 66 -263 -18 -53 -84 -123 -129 -135 -37&#10;-10 -112 4 -159 29 -57 30 -57 107 -1 211 77 141 149 192 223 158z"/>
    <path d="M2384 3561 c-37 -23 -70 -97 -60 -135 14 -56 95 -54 132 2 24 37 23&#10;121 -2 139 -24 17 -33 16 -70 -6z"/>
    <path d="M1605 3360 c-14 -23 208 -131 228 -111 9 9 5 13 -13 18 -14 3 -67 28&#10;-117 54 -51 26 -95 44 -98 39z"/>
    <path d="M1545 3289 c-10 -14 65 -138 97 -162 43 -32 44 -12 2 36 -22 24 -49&#10;65 -62 91 -25 49 -27 52 -37 35z"/>
    <path d="M1855 3184 c-60 -14 -135 -48 -135 -61 0 -11 5 -13 18 -8 68 30 134&#10;47 175 47 31 0 47 4 44 12 -4 11 -67 18 -102 10z"/>
    <path d="M1524 3145 c-9 -23 10 -40 25 -22 9 11 8 17 -4 27 -12 10 -16 9 -21&#10;-5z"/>
    <path d="M2442 3120 c-23 -17 -42 -37 -42 -45 0 -21 14 -19 35 5 10 11 20 18&#10;23 15 10 -10 -50 -74 -120 -128 -121 -92 -223 -124 -423 -134 l-131 -6 -26 31&#10;c-29 35 -64 121 -74 182 -8 48 -24 53 -24 8 1 -59 45 -174 83 -215 19 -21 29&#10;-23 143 -23 67 0 157 7 199 15 157 30 345 152 393 255 19 40 28 50 48 50 13 0&#10;24 5 24 10 0 22 -68 9 -108 -20z"/>
    <path d="M1475 3110 c-3 -5 -1 -10 4 -10 6 0 11 5 11 10 0 6 -2 10 -4 10 -3 0&#10;-8 -4 -11 -10z"/>
    <path d="M1530 3030 c0 -5 5 -10 10 -10 6 0 10 5 10 10 0 6 -4 10 -10 10 -5 0&#10;-10 -4 -10 -10z"/>
    <path d="M1887 3014 c-8 -8 1 -24 14 -24 5 0 9 7 9 15 0 15 -12 20 -23 9z"/>
    <path d="M1806 2943 c-12 -12 -6 -33 9 -33 8 0 15 6 15 14 0 17 -14 28 -24 19z"/>
    <path d="M1906 2942 c-3 -6 -1 -14 5 -17 15 -10 25 3 12 16 -7 7 -13 7 -17 1z"/>
    <path d="M403 2480 c-21 -9 -63 -101 -63 -140 0 -15 -7 -20 -25 -20 -40 0 -59&#10;-40 -52 -108 7 -75 28 -137 47 -137 17 0 17 17 0 97 -7 31 -9 69 -5 85 7 27 7&#10;28 16 6 4 -13 17 -23 27 -23 16 0 20 10 25 52 7 58 37 148 49 148 19 0 38 -63&#10;38 -125 0 -58 2 -66 18 -63 14 3 18 16 20 68 3 72 -18 144 -48 160 -21 11 -18&#10;11 -47 0z"/>
    <path d="M518 2184 c-52 -28 -28 -82 40 -91 35 -5 42 -3 42 11 0 9 -6 18 -12&#10;20 -69 21 -60 29 40 36 63 4 77 8 80 23 3 15 -6 17 -80 17 -54 -1 -93 -6 -110&#10;-16z"/>
    <path d="M877 2156 c-56 -20 -79 -45 -72 -76 3 -14 13 -31 22 -37 23 -17 117&#10;-17 132 0 16 21 3 27 -56 27 -46 0 -54 3 -51 18 2 11 20 22 51 31 34 10 47 20&#10;47 33 0 21 -20 22 -73 4z"/>
    <path d="M3327 1444 c-3 -3 2 -21 10 -40 20 -41 14 -49 -21 -33 -41 19 -50 3&#10;-36 -68 13 -63 4 -103 -23 -103 -49 0 -123 88 -135 161 -5 29 -13 44 -22 44&#10;-11 0 -15 -11 -14 -46 5 -148 183 -266 231 -152 9 24 13 51 9 75 -5 33 -4 38&#10;13 38 28 0 51 27 51 58 0 46 -41 88 -63 66z"/>
    <path d="M2128 1772 c-21 -19 -29 -34 -25 -45 4 -10 11 -17 16 -17 16 0 81 61&#10;81 76 0 23 -38 16 -72 -14z"/>
    <path d="M2426 358 c-2 -7 -7 -38 -9 -69 -3 -31 -15 -79 -27 -106 -24 -56 -75&#10;-112 -89 -97 -14 15 -33 105 -40 189 -5 65 -9 80 -23 83 -15 3 -18 -4 -18 -50&#10;0 -29 5 -110 11 -181 11 -113 14 -127 31 -127 11 0 18 7 18 20 0 15 7 20 29&#10;20 70 0 157 160 149 275 -3 46 -23 73 -32 43z"/>
    <path d="M1530 205 c0 -40 -19 -135 -27 -135 -3 0 -11 7 -18 17 -19 25 -35 6&#10;-35 -43 0 -37 3 -44 20 -44 11 0 20 4 20 9 0 5 9 11 20 14 28 7 50 66 57 148&#10;6 66 5 69 -16 69 -17 0 -21 -6 -21 -35z"/>
    <path d="M1063 174 c-8 -21 3 -96 21 -139 12 -29 20 -35 45 -35 l30 0 -24 36&#10;c-13 19 -27 56 -30 82 -4 26 -8 53 -10 60 -6 17 -24 15 -32 -4z"/>
    <path d="M1225 158 c-2 -7 -5 -46 -8 -85 -4 -65 -2 -73 13 -73 24 0 30 20 30&#10;101 0 55 -3 69 -15 69 -9 0 -17 -6 -20 -12z"/>
    <path d="M1887 133 c-9 -8 -9 -61 -1 -102 5 -22 12 -31 26 -31 17 0 18 5 12&#10;62 -4 35 -9 66 -11 71 -5 9 -17 9 -26 0z"/>
  </g>
  <path fill="#010101" opacity="1.000000" stroke="none" d="&#10;M82.263031,550.648621 &#10;&#9;C56.339706,551.000000 30.678850,550.919250 5.019792,551.097412 &#10;&#9;C1.636407,551.120911 0.899138,550.485046 0.902408,547.020996 &#10;&#9;C1.018945,423.551788 1.000000,300.082428 1.000000,176.613083 &#10;&#9;C1.000000,119.460609 1.053825,62.307968 0.880599,5.156017 &#10;&#9;C0.868874,1.287660 1.996141,0.922828 5.342282,0.924940 &#10;&#9;C144.141083,1.012565 282.939972,1.016839 421.738770,0.905626 &#10;&#9;C425.311066,0.902763 426.101532,1.597737 426.099213,5.236789 &#10;&#9;C425.986053,185.691895 425.983368,366.147095 426.108429,546.602234 &#10;&#9;C426.111176,550.578125 424.961243,551.093323 421.399719,551.084473 &#10;&#9;C371.579163,550.959900 321.758179,551.000000 271.468658,551.000000 &#10;&#9;C269.468964,549.537537 268.908539,547.668030 268.656525,545.631653 &#10;&#9;C267.319244,534.827087 264.074280,524.531006 260.442078,514.318054 &#10;&#9;C259.188721,510.793915 256.920685,509.096924 253.406128,508.069489 &#10;&#9;C233.207474,502.164978 212.572250,502.649994 191.976196,504.141907 &#10;&#9;C175.898773,505.306427 159.850052,508.334503 143.778336,507.951080 &#10;&#9;C126.568466,507.540497 109.087959,509.010162 92.156288,504.256622 &#10;&#9;C88.834564,503.324066 87.640350,504.909729 86.920227,507.750763 &#10;&#9;C84.813606,516.061768 85.658859,524.641724 84.512428,533.041870 &#10;&#9;C83.729782,538.776489 84.005470,544.637817 82.263031,550.648621 &#10;z" style="visibility: hidden;"/>
  <path fill="#9D8471" opacity="1.000000" stroke="none" d="&#10;M82.468658,551.000000 &#10;&#9;C82.436859,537.374573 83.504372,523.793335 84.868073,510.233246 &#10;&#9;C84.951141,509.407227 85.065979,508.577545 85.253708,507.769958 &#10;&#9;C86.749016,501.337311 86.739616,501.400330 92.966232,503.008087 &#10;&#9;C106.662292,506.544464 120.719887,505.477081 134.639008,506.240723 &#10;&#9;C154.009201,507.303467 173.061493,503.850555 192.266342,502.570404 &#10;&#9;C213.864075,501.130798 235.441666,500.838135 256.481018,507.360321 &#10;&#9;C258.379089,507.948730 259.927673,508.341736 260.765411,510.729767 &#10;&#9;C265.280243,523.599548 269.678436,536.472229 270.918274,550.594666 &#10;&#9;C257.312439,551.000000 243.624878,551.000000 229.468658,551.000000 &#10;&#9;C227.520126,548.910217 227.879929,547.035645 230.216599,546.160522 &#10;&#9;C243.029984,541.361572 243.817612,529.975708 246.079315,518.356506 &#10;&#9;C243.847931,519.899414 244.547226,521.448364 244.343643,522.720581 &#10;&#9;C244.107620,524.195496 243.944290,525.680908 243.620728,527.144592 &#10;&#9;C242.452850,532.427856 240.392288,537.310242 236.750107,541.357971 &#10;&#9;C233.036514,545.485046 229.744217,544.705017 228.223969,539.384216 &#10;&#9;C226.394913,532.982422 225.215912,526.462585 225.066330,519.752380 &#10;&#9;C223.835403,526.769897 225.504990,533.671753 225.883560,540.609924 &#10;&#9;C226.063339,543.904968 227.005447,547.191528 225.238953,550.701050 &#10;&#9;C214.979111,551.000000 204.958206,551.000000 194.468658,551.000000 &#10;&#9;C191.097885,548.407410 192.287735,544.562378 191.105011,540.798950 &#10;&#9;C189.870728,544.391907 192.292404,547.581116 190.228775,550.739014 &#10;&#9;C176.979111,551.000000 163.958206,551.000000 150.468658,551.000000 &#10;&#9;C148.845200,549.478760 149.984802,548.479370 150.922226,547.616821 &#10;&#9;C155.959030,542.982178 156.092209,536.816650 156.768585,530.100159 &#10;&#9;C154.700272,531.706177 155.439209,533.427063 155.188065,534.839722 &#10;&#9;C154.896942,536.477356 154.673050,538.140503 154.206085,539.725281 &#10;&#9;C153.443604,542.312805 153.337646,545.688538 149.023346,544.728394 &#10;&#9;C147.564407,544.403625 147.528580,545.702881 147.360947,546.640381 &#10;&#9;C147.128891,547.937988 147.256805,549.313965 146.228638,550.738586 &#10;&#9;C139.645599,551.000000 133.291199,551.000000 126.468399,551.000000 &#10;&#9;C123.949150,547.028809 126.793709,542.804871 125.193344,538.498962 &#10;&#9;C123.154610,542.390381 125.838341,547.190674 122.239349,550.748413 &#10;&#9;C119.958336,551.000000 117.916664,551.000000 115.437500,551.000000 &#10;&#9;C111.129211,546.752869 110.352348,541.289795 108.971756,536.025269 &#10;&#9;C108.046371,541.254517 110.793716,545.660950 112.131454,550.674255 &#10;&#9;C102.312439,551.000000 92.624878,551.000000 82.468658,551.000000 &#10;z"/>
  <path fill="#0F0C0B" opacity="1.000000" stroke="none" d="&#10;M225.399994,551.000000 &#10;&#9;C225.490372,543.663940 224.034821,536.456726 223.563416,529.184387 &#10;&#9;C223.348953,525.875793 223.184006,522.563049 223.062286,519.249817 &#10;&#9;C223.014938,517.960938 222.758850,516.211365 224.513535,516.027283 &#10;&#9;C226.558090,515.812927 226.866882,517.726929 226.830841,519.156738 &#10;&#9;C226.662277,525.844666 227.352737,532.422119 229.267319,538.821838 &#10;&#9;C229.740677,540.404114 229.398697,542.914307 231.778778,543.182007 &#10;&#9;C233.758347,543.404724 235.036896,541.679565 236.167343,540.266235 &#10;&#9;C240.779999,534.498962 242.861664,527.761353 243.507477,520.507629 &#10;&#9;C243.610413,519.351624 243.596375,518.184265 243.723099,517.031616 &#10;&#9;C243.840775,515.961304 244.333221,515.009888 245.564697,515.163574 &#10;&#9;C246.462265,515.275574 246.720963,516.165161 246.935959,517.014771 &#10;&#9;C248.822586,524.469604 241.651749,541.775085 234.995895,545.807861 &#10;&#9;C233.836609,546.510254 232.646988,547.122253 231.264938,546.980774 &#10;&#9;C228.646057,546.712769 228.764282,548.429016 228.930664,550.583069 &#10;&#9;C227.933334,551.000000 226.866653,551.000000 225.399994,551.000000 &#10;z"/>
  <path fill="#0F0C0B" opacity="1.000000" stroke="none" d="&#10;M146.399994,551.000000 &#10;&#9;C146.149094,549.014954 146.201813,547.016663 146.471771,545.048218 &#10;&#9;C146.807617,542.599304 147.279404,540.347656 150.078049,543.625732 &#10;&#9;C151.924164,545.788025 152.280289,543.070374 152.424683,542.433289 &#10;&#9;C153.228302,538.887756 153.665756,535.260986 154.401260,531.697571 &#10;&#9;C154.726624,530.121338 153.847626,527.185059 156.517776,527.554565 &#10;&#9;C158.690521,527.855225 158.033447,530.597107 157.845474,532.303833 &#10;&#9;C157.090759,539.156433 156.442017,546.115784 149.854645,550.642456 &#10;&#9;C148.933334,551.000000 147.866653,551.000000 146.399994,551.000000 &#10;z"/>
  <path fill="#110F0D" opacity="1.000000" stroke="none" d="&#10;M112.375000,551.000000 &#10;&#9;C108.856651,546.562561 107.603989,541.499268 107.201530,536.185486 &#10;&#9;C107.105301,534.914917 107.057892,533.239075 108.856506,533.152527 &#10;&#9;C110.641754,533.066589 110.804924,534.688049 110.796524,535.999695 &#10;&#9;C110.762566,541.299133 112.716110,545.928467 115.218544,550.660645 &#10;&#9;C114.250000,551.000000 113.500000,551.000000 112.375000,551.000000 &#10;z"/>
  <path fill="#14110F" opacity="1.000000" stroke="none" d="&#10;M122.399994,551.000000 &#10;&#9;C123.720467,546.895325 122.761780,542.471619 123.526016,538.256470 &#10;&#9;C123.774437,536.886353 123.565697,534.799194 125.683472,535.039307 &#10;&#9;C127.401886,535.234070 126.963341,537.077637 126.966827,538.335327 &#10;&#9;C126.977814,542.302917 126.848846,546.263977 125.977821,550.578308 &#10;&#9;C124.933327,551.000000 123.866661,551.000000 122.399994,551.000000 &#10;z"/>
  <path fill="#0F0C0B" opacity="1.000000" stroke="none" d="&#10;M190.399994,551.000000 &#10;&#9;C189.836563,548.188965 189.520477,545.375305 189.568375,542.567871 &#10;&#9;C189.595993,540.948792 188.840759,538.236694 191.404984,538.237732 &#10;&#9;C193.710129,538.238647 192.745834,540.785156 192.945953,542.284729 &#10;&#9;C193.296280,544.909912 193.559677,547.546753 193.929749,550.589355 &#10;&#9;C192.933334,551.000000 191.866653,551.000000 190.399994,551.000000 &#10;z"/>
  <path fill="#9D8471" opacity="1.000000" stroke="none" d="&#10;M168.116272,310.754639 &#10;&#9;C164.514084,312.964722 160.971024,314.756042 157.507690,316.690094 &#10;&#9;C156.368927,317.326050 155.003952,318.388428 155.932266,319.859680 &#10;&#9;C157.076019,321.672333 158.211594,319.957642 159.222977,319.365723 &#10;&#9;C163.901688,316.627533 168.502365,313.697693 175.570175,313.933380 &#10;&#9;C171.550720,317.100769 168.453583,319.517273 165.386658,321.971466 &#10;&#9;C164.340607,322.808533 163.038757,323.846863 164.304947,325.222870 &#10;&#9;C165.364746,326.374573 166.500305,325.124908 167.313736,324.470459 &#10;&#9;C175.119385,318.190735 183.116226,312.380859 192.698334,308.840729 &#10;&#9;C204.800812,304.369354 217.113846,302.719086 229.878647,304.219696 &#10;&#9;C231.186905,304.373535 232.596970,305.140686 233.596924,303.895050 &#10;&#9;C234.719559,302.496613 233.171860,301.506439 232.697662,300.346344 &#10;&#9;C231.251312,296.808014 232.036011,293.461151 233.868973,290.335663 &#10;&#9;C238.950134,281.671509 249.590668,276.024567 261.137543,279.011658 &#10;&#9;C266.416992,280.377441 270.888092,281.567261 274.403351,286.144165 &#10;&#9;C278.644836,291.666687 280.424835,297.909729 281.670166,304.483765 &#10;&#9;C281.761200,304.964386 281.788177,305.893677 281.717743,305.906342 &#10;&#9;C274.989502,307.115601 279.657867,312.112091 278.863831,315.159943 &#10;&#9;C277.195526,321.563721 273.119385,325.670074 267.780548,328.609222 &#10;&#9;C256.950409,334.571411 245.182831,338.152435 233.305878,341.396606 &#10;&#9;C218.399658,345.468201 203.486450,349.506805 188.307968,352.456665 &#10;&#9;C181.299591,353.818726 174.256592,354.858521 167.381210,356.992340 &#10;&#9;C154.505859,360.988220 143.950256,367.759125 137.377106,380.914032 &#10;&#9;C135.657684,372.637756 137.641815,365.953888 140.654816,359.423798 &#10;&#9;C141.211624,358.217041 141.655014,356.956940 142.128204,355.712891 &#10;&#9;C142.589310,354.500610 143.513199,353.021210 141.612885,352.390961 &#10;&#9;C140.144516,351.903961 139.681763,353.442017 139.262863,354.449158 &#10;&#9;C136.472366,361.158264 133.297012,367.752594 133.029190,376.589203 &#10;&#9;C127.475403,366.052826 126.658020,356.428986 129.215378,346.384644 &#10;&#9;C129.581772,344.945557 131.268417,342.844269 128.780365,342.248749 &#10;&#9;C126.652054,341.739349 126.701042,344.374481 126.120857,345.785919 &#10;&#9;C125.559540,347.151428 125.310188,348.645233 124.804405,350.526917 &#10;&#9;C118.931641,342.931030 117.088882,334.355286 116.370087,325.640350 &#10;&#9;C115.318527,312.890869 114.808899,300.243622 120.677605,288.015076 &#10;&#9;C123.536469,282.058075 128.881241,279.602448 133.023376,275.479858 &#10;&#9;C134.275421,274.233704 139.216705,274.584900 135.624420,270.541870 &#10;&#9;C135.179565,270.041229 136.542236,269.419067 137.217407,269.165253 &#10;&#9;C144.178711,266.548126 151.445328,265.689209 158.792236,266.167816 &#10;&#9;C162.835281,266.431274 163.942444,270.997070 167.035339,272.957062 &#10;&#9;C170.912720,275.414246 171.266769,278.762054 168.709106,282.396149 &#10;&#9;C168.339233,282.921692 167.592392,283.828339 167.401138,283.739349 &#10;&#9;C161.494156,280.991302 162.642715,286.771118 162.362030,288.682495 &#10;&#9;C161.423782,295.071381 160.892990,301.628906 163.108719,307.953583 &#10;&#9;C163.595978,309.344482 163.724350,311.651215 166.639832,310.139221 &#10;&#9;C167.464737,309.809875 167.880951,309.959351 168.116272,310.754639 &#10;z"/>
  <path fill="#D1B6A5" opacity="1.000000" stroke="none" d="&#10;M168.441849,311.128601 &#10;&#9;C167.837708,310.809082 167.649307,310.500336 167.202423,310.088745 &#10;&#9;C166.447235,308.230652 165.743988,306.504517 165.492004,304.714813 &#10;&#9;C164.691315,299.027710 163.320923,293.207092 168.429398,288.532806 &#10;&#9;C169.389069,287.654694 170.479156,286.486816 170.699203,285.302246 &#10;&#9;C172.206482,277.187927 177.978760,276.885010 184.579224,276.862000 &#10;&#9;C193.249146,276.831787 201.846939,277.448700 210.449402,278.267151 &#10;&#9;C212.361771,278.449097 215.232208,279.716736 215.654694,277.371033 &#10;&#9;C216.184799,274.427948 212.907166,275.407715 211.237015,275.190308 &#10;&#9;C201.328186,273.900665 191.356110,273.066467 181.396133,274.169067 &#10;&#9;C175.490097,274.822876 171.139267,272.389893 167.047104,268.735016 &#10;&#9;C163.094849,265.205078 160.929337,260.460358 158.591888,255.908569 &#10;&#9;C157.454514,253.693741 158.154984,251.104889 159.877319,248.611526 &#10;&#9;C160.081131,244.688873 163.309265,243.025955 164.960022,240.037613 &#10;&#9;C166.411835,238.996246 167.357880,238.272369 165.725784,236.838577 &#10;&#9;C161.928146,233.502457 159.688644,229.063995 157.363083,224.440521 &#10;&#9;C159.040619,230.095474 163.548645,233.914780 165.379486,239.463348 &#10;&#9;C162.762680,242.147369 160.921829,245.061325 158.327026,247.774414 &#10;&#9;C156.395828,249.583466 157.163162,252.202713 155.639175,253.835205 &#10;&#9;C146.758453,249.205627 144.602280,242.832809 148.620636,233.806763 &#10;&#9;C150.605255,229.348938 152.873672,225.106339 152.903381,219.776138 &#10;&#9;C152.912415,218.157684 155.166870,213.487518 159.620880,213.045410 &#10;&#9;C161.817780,211.363113 164.063339,211.597717 166.181488,211.724533 &#10;&#9;C173.190170,212.144135 180.096741,210.931107 187.038300,210.446915 &#10;&#9;C199.189560,209.599350 206.597916,201.571747 212.858246,192.191238 &#10;&#9;C216.350372,186.958603 218.849213,181.060593 223.659424,176.248169 &#10;&#9;C226.753586,175.600388 226.161697,178.308243 227.025818,179.586807 &#10;&#9;C228.449188,181.692856 229.753876,182.354263 231.718353,180.403076 &#10;&#9;C231.952026,180.170975 232.247955,180.002533 232.508560,179.796417 &#10;&#9;C246.635498,168.623550 248.308945,169.454559 262.612793,180.586838 &#10;&#9;C263.668091,180.453323 264.065216,180.882370 264.307007,181.768097 &#10;&#9;C268.592896,185.832855 268.650696,190.299026 266.762390,195.361343 &#10;&#9;C265.975769,197.470169 265.979462,199.905685 265.807465,202.206375 &#10;&#9;C265.035736,212.529236 265.059570,212.531021 275.621277,214.965729 &#10;&#9;C276.336365,215.409500 276.582672,215.789474 276.742096,216.566132 &#10;&#9;C276.755005,217.385345 276.775757,217.860413 276.834595,218.690552 &#10;&#9;C276.832062,220.146301 276.220367,220.958923 275.253571,221.880310 &#10;&#9;C274.205048,221.787155 273.428589,221.521286 272.639954,221.298538 &#10;&#9;C271.419647,220.953873 269.828217,219.949448 269.132507,221.557510 &#10;&#9;C268.423584,223.196167 270.177612,223.632111 271.352356,224.233810 &#10;&#9;C272.795837,224.973206 275.153381,225.043854 273.151306,227.876465 &#10;&#9;C266.655304,237.067291 265.066101,247.678101 264.715912,258.611511 &#10;&#9;C264.641876,260.922699 264.349304,263.246521 263.931946,265.523224 &#10;&#9;C262.884369,271.237762 258.865021,273.696075 253.594574,274.877289 &#10;&#9;C246.478653,276.472137 239.397751,278.223907 232.306824,279.929199 &#10;&#9;C230.781433,280.296021 228.256912,280.114319 228.567581,282.231079 &#10;&#9;C228.933594,284.724915 231.199463,283.003784 232.653473,283.036621 &#10;&#9;C233.297287,283.051178 233.941711,283.039093 235.573593,283.039093 &#10;&#9;C230.948517,287.763123 228.214172,292.726196 228.937164,298.947815 &#10;&#9;C229.134109,300.642609 228.091461,300.663025 226.722626,300.575409 &#10;&#9;C211.116531,299.576599 196.375076,302.731720 182.467957,309.880585 &#10;&#9;C178.124573,312.113281 173.264801,309.290100 168.441849,311.128601 &#10;z"/>
  <path fill="#9B8270" opacity="1.000000" stroke="none" d="&#10;M332.802917,455.768433 &#10;&#9;C325.845886,467.158173 316.680603,475.688507 303.887634,479.759155 &#10;&#9;C302.626648,480.160400 301.172546,480.709167 300.268463,479.314789 &#10;&#9;C299.553711,478.212433 300.305084,477.093628 300.957123,476.096954 &#10;&#9;C302.372101,473.934357 305.779419,471.693054 299.950195,470.437561 &#10;&#9;C297.396698,469.887604 299.592163,467.951019 300.315857,467.037506 &#10;&#9;C307.021179,458.573334 313.858673,450.238007 324.285187,445.979065 &#10;&#9;C326.462280,445.089752 328.440460,443.766052 329.622620,441.649841 &#10;&#9;C330.457672,440.154968 330.856903,438.457520 329.576263,436.981720 &#10;&#9;C328.396423,435.622040 326.873352,436.006500 325.423279,436.540741 &#10;&#9;C321.338074,438.045776 318.481750,441.174652 315.944305,444.423035 &#10;&#9;C311.173218,450.531006 303.912506,452.457092 297.605621,455.987671 &#10;&#9;C296.950500,456.354431 296.043610,456.887726 295.319214,456.103821 &#10;&#9;C294.431244,455.142883 295.080292,454.251221 295.697113,453.460175 &#10;&#9;C296.309601,452.674683 297.039459,451.980286 297.646576,451.191132 &#10;&#9;C299.437439,448.863373 300.120941,446.905853 295.997375,446.773987 &#10;&#9;C294.333160,446.720764 292.419250,446.884583 291.880829,444.841736 &#10;&#9;C291.388580,442.974060 292.854462,441.777618 294.102997,440.683563 &#10;&#9;C298.809296,436.559845 303.039459,432.162354 303.405579,425.404266 &#10;&#9;C303.467468,424.262360 303.669098,423.097412 303.514069,421.983765 &#10;&#9;C303.382111,421.035980 302.943420,419.938354 301.636414,420.099701 &#10;&#9;C300.670593,420.218994 300.389282,421.079041 300.297913,421.933441 &#10;&#9;C300.174652,423.086456 300.272064,424.290588 299.975342,425.392120 &#10;&#9;C299.202240,428.261932 297.653076,429.507477 294.443268,428.328979 &#10;&#9;C290.520844,426.888885 287.752472,424.086823 284.917053,421.285767 &#10;&#9;C284.255310,420.632019 284.067291,419.842102 284.602478,419.046356 &#10;&#9;C285.165741,418.208893 285.967926,418.380157 286.819672,418.608856 &#10;&#9;C288.743500,419.125305 290.666595,419.743195 292.631348,419.988800 &#10;&#9;C297.416321,420.586945 300.269989,417.962616 300.159943,413.108368 &#10;&#9;C300.062744,408.821228 298.390594,405.013733 296.066467,401.509674 &#10;&#9;C292.762146,396.527802 289.340149,391.623932 285.964233,386.333771 &#10;&#9;C290.750641,386.487915 295.500336,387.257080 300.132568,388.582458 &#10;&#9;C301.388519,388.941803 302.535889,389.726257 303.829376,390.061188 &#10;&#9;C307.989319,391.138306 310.209534,389.207886 309.063171,385.116119 &#10;&#9;C307.728271,380.351379 305.431702,375.974487 302.325714,372.070831 &#10;&#9;C303.810486,375.167480 305.467957,378.181396 306.758514,381.357697 &#10;&#9;C307.678406,383.621765 309.158356,386.255737 306.664520,388.223175 &#10;&#9;C304.508209,389.924377 301.990997,388.689606 300.246429,387.185608 &#10;&#9;C295.937714,383.471161 291.133636,385.443970 286.242065,385.777405 &#10;&#9;C282.894196,384.227386 281.599792,380.692413 278.855225,378.536377 &#10;&#9;C277.838440,377.737640 276.802856,376.264465 275.478699,377.402832 &#10;&#9;C273.985199,378.686768 275.451599,379.795715 276.375610,380.654327 &#10;&#9;C283.417908,387.198212 287.574554,395.913910 293.473511,403.316254 &#10;&#9;C294.086578,404.085571 294.653595,404.989227 294.916809,405.922241 &#10;&#9;C295.893585,409.384552 299.194916,412.922028 295.452393,416.418732 &#10;&#9;C293.490601,418.251587 285.472198,415.437103 282.984680,412.375061 &#10;&#9;C280.782898,409.664825 278.737244,406.819336 276.416443,404.217499 &#10;&#9;C275.137299,402.783417 273.351990,400.948761 271.365784,402.798187 &#10;&#9;C269.704895,404.344666 271.004242,406.211334 272.124146,407.693298 &#10;&#9;C274.131866,410.350220 276.145874,413.029785 279.061310,414.791168 &#10;&#9;C280.854950,415.874847 282.055145,417.417084 280.742462,419.269989 &#10;&#9;C279.194794,421.454529 277.086456,420.102478 275.431396,419.124756 &#10;&#9;C266.835510,414.046814 261.382050,406.219025 256.447388,397.787140 &#10;&#9;C252.382233,390.841003 251.359421,384.643127 255.614136,376.999298 &#10;&#9;C258.703644,371.448853 261.157074,365.329254 263.718811,359.392273 &#10;&#9;C267.936279,349.618103 275.320312,342.950531 283.944275,337.281464 &#10;&#9;C285.476227,336.274384 286.139832,336.500305 287.644562,337.588440 &#10;&#9;C303.392487,348.976379 315.404449,363.673889 325.692566,379.932770 &#10;&#9;C327.528870,382.834869 329.137360,385.872498 330.004913,389.889099 &#10;&#9;C327.046570,389.275269 325.158905,387.720062 323.140808,386.446075 &#10;&#9;C321.952393,385.695770 320.550568,383.939392 319.369934,385.770538 &#10;&#9;C318.264404,387.485199 320.399414,388.289612 321.496552,389.116211 &#10;&#9;C322.950134,390.211426 324.490356,391.621185 326.164551,391.912811 &#10;&#9;C331.014801,392.757812 333.091370,396.534485 335.674011,399.904449 &#10;&#9;C339.012177,404.260284 342.554321,408.463074 345.809113,412.878876 &#10;&#9;C351.539185,420.652985 353.138458,429.481354 351.887695,438.905426 &#10;&#9;C350.954651,445.935608 346.557404,450.473267 340.405396,453.950134 &#10;&#9;C339.162292,453.219757 339.404175,452.225464 339.438141,451.253510 &#10;&#9;C339.523163,448.823517 339.345856,446.230225 336.065887,446.601196 &#10;&#9;C333.090302,446.937714 331.705566,449.267639 331.740875,452.171326 &#10;&#9;C331.754028,453.253204 332.487701,454.313690 332.802917,455.768433 &#10;z"/>
  <path fill="#EC8735" opacity="1.000000" stroke="none" d="&#10;M229.305969,469.710571 &#10;&#9;C230.830078,476.479950 235.600922,476.701843 241.409546,475.997986 &#10;&#9;C239.268585,478.956879 235.071548,480.752563 238.130707,484.831512 &#10;&#9;C241.264526,489.009979 245.186508,491.466248 250.555389,490.264313 &#10;&#9;C255.146042,489.236572 257.367065,489.886780 258.432953,495.457184 &#10;&#9;C260.299652,505.212280 260.809723,505.446442 251.223679,502.694366 &#10;&#9;C230.811188,496.834106 210.030487,498.466278 189.362747,499.613251 &#10;&#9;C183.175873,499.956573 179.067123,497.548950 173.890289,494.560822 &#10;&#9;C181.639069,492.318359 188.751541,490.284149 195.843643,488.181213 &#10;&#9;C196.889999,487.870972 198.611252,487.979828 198.648224,486.575195 &#10;&#9;C198.696350,484.747742 196.833145,484.917419 195.630875,484.800720 &#10;&#9;C185.872147,483.853516 176.105698,482.985260 166.340912,482.100739 &#10;&#9;C151.789093,480.782654 137.447495,478.314240 123.197220,474.181702 &#10;&#9;C132.717392,470.102142 142.441986,466.817719 151.917038,461.958344 &#10;&#9;C150.037750,459.535553 147.949921,460.368805 146.167786,460.451996 &#10;&#9;C131.563019,461.133667 117.041428,463.118164 102.384132,463.071838 &#10;&#9;C90.494080,463.034241 90.443230,463.144714 93.245148,451.919312 &#10;&#9;C95.377975,443.374512 97.659821,434.866882 100.047043,425.974609 &#10;&#9;C101.680023,424.549927 103.369102,424.660583 105.018364,424.748962 &#10;&#9;C135.741486,426.394989 165.010406,433.843384 192.605423,447.412109 &#10;&#9;C204.915115,453.464935 218.024368,458.306976 228.038208,468.312073 &#10;&#9;C228.390320,468.663849 228.756592,469.000702 229.305969,469.710571 &#10;z"/>
  <path fill="#9B8270" opacity="1.000000" stroke="none" d="&#10;M32.987110,289.760498 &#10;&#9;C32.935429,287.141235 32.799614,284.972015 32.900600,282.813904 &#10;&#9;C32.969734,281.336548 33.200832,279.600739 34.893528,279.144867 &#10;&#9;C36.555523,278.697266 37.546276,280.084259 38.582653,281.199249 &#10;&#9;C39.931858,282.650726 39.812660,286.458649 42.547318,285.372162 &#10;&#9;C45.672039,284.130707 43.453709,281.017090 43.210258,278.702789 &#10;&#9;C42.857491,275.349213 43.441410,272.131470 44.583694,267.477997 &#10;&#9;C45.471325,271.781830 44.581310,274.931183 45.997562,277.700104 &#10;&#9;C46.696033,279.065643 47.352585,280.561584 49.037899,280.680481 &#10;&#9;C51.126675,280.827881 51.741188,279.006256 52.372791,277.494934 &#10;&#9;C54.099380,273.363464 52.159695,269.591797 50.756302,265.949921 &#10;&#9;C49.516533,262.732635 50.094219,260.070343 51.836792,257.483398 &#10;&#9;C53.852753,254.490570 56.259418,254.492081 57.953369,257.710236 &#10;&#9;C59.730328,261.086060 60.697235,264.814880 60.957954,268.667786 &#10;&#9;C61.885143,282.369690 58.725063,295.842560 58.607124,309.505554 &#10;&#9;C58.576904,313.006561 55.236950,315.968201 55.059704,319.755951 &#10;&#9;C55.001293,321.004181 54.434143,322.769165 56.373421,322.933533 &#10;&#9;C57.857964,323.059387 57.877518,321.490631 58.105167,320.356018 &#10;&#9;C58.300934,319.380280 58.540123,318.405579 58.857483,317.463226 &#10;&#9;C60.049046,313.925018 61.049633,310.342590 66.271294,312.809631 &#10;&#9;C67.951942,313.603699 70.254486,312.957550 72.190445,313.362610 &#10;&#9;C75.572746,314.070251 79.812477,312.084167 81.917397,317.167786 &#10;&#9;C82.631989,318.893585 86.004898,318.940613 88.397865,318.919189 &#10;&#9;C93.079185,318.877228 97.708862,318.386292 102.255699,317.302734 &#10;&#9;C104.941734,316.662598 105.955322,317.593750 105.799774,320.290894 &#10;&#9;C105.196510,330.751221 104.630371,341.213898 104.114685,351.678864 &#10;&#9;C104.039452,353.205444 103.425835,354.191071 102.099136,354.806305 &#10;&#9;C88.844757,360.952362 75.695618,367.395538 61.098766,369.868622 &#10;&#9;C59.641479,370.115509 58.108898,370.026428 56.619675,369.943024 &#10;&#9;C55.364544,369.872742 54.414467,369.196503 54.091030,367.903107 &#10;&#9;C53.730743,366.462372 54.062916,365.259094 55.470692,364.533203 &#10;&#9;C57.688412,363.389771 59.919006,362.271271 62.134888,361.124298 &#10;&#9;C63.214939,360.565247 64.369659,359.791748 63.688217,358.466492 &#10;&#9;C63.168369,357.455536 61.851475,357.679626 60.987068,358.203156 &#10;&#9;C55.152611,361.736511 48.289749,362.009125 42.040657,364.225311 &#10;&#9;C40.348652,364.825409 38.481121,364.989624 36.676136,365.197388 &#10;&#9;C34.328991,365.467529 32.449459,364.890747 31.571648,362.306671 &#10;&#9;C30.692390,359.718323 31.834955,358.095245 33.864769,356.899628 &#10;&#9;C38.013420,354.455902 42.144611,351.957367 46.916698,350.828674 &#10;&#9;C48.160454,350.534546 50.076050,350.371765 49.742886,348.697784 &#10;&#9;C49.318893,346.567444 47.452866,347.468414 46.029381,347.771667 &#10;&#9;C41.389893,348.760132 37.198544,350.937225 33.404991,353.561157 &#10;&#9;C29.417839,356.319092 26.294950,354.940613 23.690859,352.190918 &#10;&#9;C21.310638,349.677582 16.477734,347.760864 19.902313,342.647034 &#10;&#9;C21.285427,340.581665 19.172756,339.671173 17.845840,338.874084 &#10;&#9;C12.107245,335.427002 10.743318,330.035553 10.869103,323.879852 &#10;&#9;C10.923962,321.195251 11.611007,319.394592 14.678146,321.021240 &#10;&#9;C19.212246,323.425873 19.496408,320.879333 19.006037,317.428833 &#10;&#9;C17.907066,309.695801 16.024216,302.075287 15.782355,294.218567 &#10;&#9;C15.638005,289.529449 15.938082,284.865570 17.084217,280.337341 &#10;&#9;C17.666706,278.035950 18.248882,274.908051 21.034998,274.586792 &#10;&#9;C23.799372,274.268005 25.228022,276.964294 26.382746,279.200287 &#10;&#9;C28.235157,282.787292 28.972212,286.728912 29.747635,290.651978 &#10;&#9;C30.045916,292.161072 29.599131,294.718567 31.890150,294.418488 &#10;&#9;C34.214207,294.114014 32.814808,291.710266 32.987110,289.760498 &#10;z"/>
  <path fill="#745851" opacity="1.000000" stroke="none" d="&#10;M242.915054,161.741364 &#10;&#9;C241.368866,162.797211 240.036041,163.534500 238.928726,164.524124 &#10;&#9;C236.332031,166.844833 236.425583,167.535904 239.557571,170.512222 &#10;&#9;C237.562622,171.963730 235.418854,173.196045 233.687027,174.857712 &#10;&#9;C230.849213,177.580536 229.304855,177.456467 227.785461,173.530380 &#10;&#9;C226.236404,169.527588 225.638443,166.502686 229.175919,162.854080 &#10;&#9;C234.062546,157.813934 233.139023,155.753784 225.482254,151.467102 &#10;&#9;C226.812286,148.858093 229.392181,148.487991 231.734238,148.285400 &#10;&#9;C244.513168,147.180069 256.984802,148.500031 268.903992,153.563858 &#10;&#9;C269.669708,153.889160 270.385956,154.345016 271.168823,154.612457 &#10;&#9;C272.382477,155.027130 274.050293,155.887451 274.644531,154.274155 &#10;&#9;C275.282196,152.543076 273.301758,152.390427 272.181458,151.835861 &#10;&#9;C259.567383,145.591812 246.086884,144.382202 232.310059,145.098434 &#10;&#9;C229.659485,145.236252 226.653793,145.655060 224.907608,147.659927 &#10;&#9;C222.439835,150.493256 219.822983,150.338181 216.552765,149.953812 &#10;&#9;C203.500443,148.419617 190.411392,147.131882 177.371140,152.380859 &#10;&#9;C180.854263,145.662277 182.468704,138.143967 187.899551,132.521805 &#10;&#9;C192.416946,127.845284 197.179062,123.450394 202.193436,119.314049 &#10;&#9;C204.831024,117.138298 207.504089,116.476868 210.960861,117.480736 &#10;&#9;C221.711716,120.602867 231.905029,125.068604 241.995972,129.803513 &#10;&#9;C246.122498,131.739777 249.318649,134.954178 252.559036,138.077698 &#10;&#9;C253.341217,138.831680 254.254807,140.273239 255.420898,139.291687 &#10;&#9;C256.891693,138.053680 255.539978,136.866547 254.614716,135.980362 &#10;&#9;C247.519669,129.185181 240.341736,122.488220 232.148666,116.982819 &#10;&#9;C229.447464,115.167709 226.523209,113.599449 224.206757,110.827934 &#10;&#9;C228.788025,108.137062 233.504532,106.891418 238.448944,106.172279 &#10;&#9;C244.684174,105.265381 249.213150,108.462914 252.780136,112.693466 &#10;&#9;C261.763184,123.347679 271.510529,133.513626 277.016815,146.666504 &#10;&#9;C277.557587,147.958237 278.215546,149.162903 279.886444,148.829361 &#10;&#9;C281.296661,148.547867 281.472504,147.256302 281.660736,146.113052 &#10;&#9;C281.794983,145.297531 281.741974,144.452805 281.801819,143.623230 &#10;&#9;C282.934448,127.931000 287.998291,129.547623 299.722382,130.179276 &#10;&#9;C302.473541,130.327499 302.754395,132.022232 301.304138,133.912231 &#10;&#9;C293.726440,143.787659 292.462006,155.184250 293.091583,167.073822 &#10;&#9;C293.135040,167.894897 293.275818,168.906784 292.887024,169.525711 &#10;&#9;C285.587585,181.145706 288.557007,193.635803 290.139313,205.845856 &#10;&#9;C290.617615,209.536377 289.475922,210.712387 286.639221,211.481369 &#10;&#9;C281.147766,212.970016 275.750275,211.875061 270.372589,210.685349 &#10;&#9;C270.211182,210.649628 269.978149,210.624451 269.912506,210.514404 &#10;&#9;C267.691284,206.790680 268.930420,202.737869 269.228302,198.915833 &#10;&#9;C269.384003,196.918289 268.706787,193.491852 272.342255,193.046951 &#10;&#9;C273.856232,192.861679 275.192841,192.589508 274.654633,190.748184 &#10;&#9;C272.544891,183.530487 277.068176,178.783859 280.949921,173.901627 &#10;&#9;C284.004883,170.059311 283.583405,168.014420 278.827637,167.272537 &#10;&#9;C274.905945,166.660767 270.876862,166.143967 266.947815,166.397537 &#10;&#9;C264.627045,166.547318 263.313324,165.960388 261.769348,164.506332 &#10;&#9;C255.455338,158.560043 250.998215,157.906494 242.915054,161.741364 &#10;z"/>
  <path fill="#FBFBFA" opacity="1.000000" stroke="none" d="&#10;M229.628479,469.653381 &#10;&#9;C225.947510,469.779755 224.419052,466.535492 221.983902,464.671722 &#10;&#9;C211.707901,456.806793 199.691269,452.240601 188.266830,446.589081 &#10;&#9;C170.546814,437.823242 151.494797,433.044037 132.288177,428.909912 &#10;&#9;C122.022598,426.700348 111.457108,427.103546 100.649551,425.697021 &#10;&#9;C100.840355,420.837250 101.739288,416.082977 101.997978,411.294067 &#10;&#9;C102.213982,407.295349 103.770126,407.903259 106.210045,409.367737 &#10;&#9;C111.190971,412.357483 116.208740,415.286591 121.239449,418.192017 &#10;&#9;C122.407799,418.866791 123.686249,420.614655 125.032982,418.724609 &#10;&#9;C126.132912,417.181030 124.812202,416.026154 123.806503,414.860657 &#10;&#9;C118.798042,409.056335 113.387337,403.732880 107.024651,399.362823 &#10;&#9;C105.754524,398.490479 103.085686,397.639404 103.784157,395.658722 &#10;&#9;C104.536873,393.524261 107.069542,394.779358 108.573189,395.023987 &#10;&#9;C117.930595,396.546112 127.185715,398.489899 135.884125,402.534882 &#10;&#9;C145.235733,406.883545 154.412445,411.514465 163.043381,417.198700 &#10;&#9;C164.294449,418.022614 165.540176,420.213501 167.646072,417.926758 &#10;&#9;C169.693207,415.703827 167.514786,414.559906 166.642609,413.344055 &#10;&#9;C162.590988,407.695984 158.343399,402.188507 153.393524,395.603027 &#10;&#9;C159.657486,396.332855 164.709946,397.598022 169.699295,399.558228 &#10;&#9;C186.467468,406.146118 200.122375,416.985413 212.267227,430.037109 &#10;&#9;C215.314484,433.311890 218.898911,436.094360 222.307190,439.020691 &#10;&#9;C223.235657,439.817871 224.377274,441.313293 225.679230,440.153229 &#10;&#9;C227.043930,438.937286 225.638626,437.679321 224.851105,436.733490 &#10;&#9;C220.663025,431.703461 217.934769,425.807953 214.894745,420.101501 &#10;&#9;C214.471344,419.306702 213.755875,418.379242 214.407532,417.265472 &#10;&#9;C223.985458,421.965729 231.454117,429.083099 238.285614,437.886475 &#10;&#9;C233.887451,438.143585 230.172806,438.764740 230.681107,444.382294 &#10;&#9;C231.085144,448.847321 233.921692,452.623474 239.157410,454.097900 &#10;&#9;C241.678741,454.807983 244.281357,455.243805 247.204163,457.140472 &#10;&#9;C243.626556,458.479279 240.568542,459.396729 237.715820,460.747681 &#10;&#9;C234.000168,462.507172 229.906998,464.107941 229.628479,469.653381 &#10;z"/>
  <path fill="#CFB5A4" opacity="1.000000" stroke="none" d="&#10;M254.690384,445.147064 &#10;&#9;C259.508636,447.252289 261.653534,451.184753 263.496582,455.342651 &#10;&#9;C265.045013,458.835876 266.428955,462.403564 268.031616,465.870819 &#10;&#9;C270.057678,470.254089 272.428467,470.957245 276.096558,467.696075 &#10;&#9;C280.926331,463.402039 286.210785,459.554260 290.507477,453.656006 &#10;&#9;C292.842957,463.851501 298.733124,458.835052 304.833282,456.208435 &#10;&#9;C301.340393,460.687256 298.606628,463.798492 296.354858,467.226349 &#10;&#9;C294.977539,469.322937 293.601624,471.523071 296.814606,474.101349 &#10;&#9;C298.455750,475.418304 297.585022,478.833557 295.072723,480.210846 &#10;&#9;C290.127563,482.921967 285.059814,485.409241 280.046448,487.996277 &#10;&#9;C278.210602,488.943665 276.950897,490.434845 275.920593,492.205414 &#10;&#9;C274.742828,494.229248 273.281921,496.044647 271.303833,497.371399 &#10;&#9;C265.920746,500.981964 262.119354,499.440369 260.950226,493.171967 &#10;&#9;C260.889557,492.846649 260.924133,492.504242 260.871338,492.176697 &#10;&#9;C260.488098,489.799072 260.889984,486.575714 259.496521,485.266449 &#10;&#9;C257.845581,483.715332 255.483536,486.714417 253.146576,486.913849 &#10;&#9;C249.310150,487.241241 245.469971,487.891235 242.284988,484.879456 &#10;&#9;C240.361511,483.060608 239.662628,481.378601 242.768112,480.025970 &#10;&#9;C245.660004,478.766418 248.428314,477.122833 251.424255,476.228821 &#10;&#9;C254.898926,475.191925 258.916595,473.280457 261.042664,478.573792 &#10;&#9;C261.332001,479.294220 262.187744,479.948883 263.091309,479.527466 &#10;&#9;C264.273346,478.976135 264.040588,477.896881 263.594299,476.983398 &#10;&#9;C262.247559,474.226746 260.775421,472.023895 257.021423,471.838104 &#10;&#9;C251.527679,471.566254 246.126160,470.958527 240.768860,472.882721 &#10;&#9;C239.431229,473.363159 237.801651,473.044861 236.305847,473.066864 &#10;&#9;C234.788895,473.089203 233.763550,472.299286 233.259323,470.935089 &#10;&#9;C232.715210,469.462891 232.614944,467.981750 233.987228,466.825745 &#10;&#9;C238.728271,462.832031 244.553833,461.361542 250.387329,460.082062 &#10;&#9;C251.370377,459.866455 252.765350,461.061646 253.834305,461.801147 &#10;&#9;C256.158386,463.408783 258.367310,465.182281 260.679657,466.807770 &#10;&#9;C261.717133,467.537140 263.057098,468.761292 264.100586,467.164703 &#10;&#9;C265.163177,465.538940 263.345367,464.827911 262.372803,464.160980 &#10;&#9;C255.036163,459.130005 248.751236,452.341278 239.355133,450.710724 &#10;&#9;C237.737396,450.429962 236.302475,448.790131 234.904419,447.631683 &#10;&#9;C233.391922,446.378418 233.693130,444.508118 234.039291,442.961029 &#10;&#9;C234.514114,440.838837 236.509903,441.628052 237.797775,441.785675 &#10;&#9;C243.380066,442.468903 249.125824,442.407501 254.690384,445.147064 &#10;z"/>
  <path fill="#CFB5A4" opacity="1.000000" stroke="none" d="&#10;M52.803822,200.223907 &#10;&#9;C54.492447,204.823349 56.894337,208.623856 59.258282,212.434204 &#10;&#9;C61.839321,216.594482 61.511913,220.271759 57.720531,223.512497 &#10;&#9;C57.215084,223.944550 56.805332,224.523499 56.244007,224.850067 &#10;&#9;C45.283646,231.226974 44.084026,240.829666 47.117172,251.948593 &#10;&#9;C48.088718,255.510086 49.289932,258.533447 44.188217,261.239838 &#10;&#9;C40.835552,263.018402 40.808762,268.847748 40.136627,273.120392 &#10;&#9;C39.933430,274.412079 39.923550,275.734161 39.803257,277.332886 &#10;&#9;C36.128403,275.294250 32.725407,274.104645 30.383020,279.328644 &#10;&#9;C28.441978,276.239014 26.891586,273.665802 24.345104,272.003723 &#10;&#9;C23.379999,271.373810 23.072197,270.562866 23.320520,269.459747 &#10;&#9;C24.826416,262.770203 23.059584,255.812790 24.970320,249.158707 &#10;&#9;C25.356794,247.812836 25.033327,246.883408 23.672129,246.409775 &#10;&#9;C18.865761,244.737457 18.310863,239.978806 16.389553,236.248932 &#10;&#9;C15.714562,234.938538 25.203207,224.680115 26.618109,224.971222 &#10;&#9;C28.967670,225.454651 28.035866,227.333862 28.039486,228.597977 &#10;&#9;C28.050352,232.393295 28.685907,235.889175 31.577263,238.627853 &#10;&#9;C32.542976,239.542557 33.655735,240.765411 34.954475,239.527634 &#10;&#9;C36.144829,238.393127 34.768143,237.559525 34.091091,236.667435 &#10;&#9;C29.721832,230.910461 30.213022,226.548386 35.596027,222.084793 &#10;&#9;C36.469463,221.360565 37.845768,220.264038 37.747040,219.500183 &#10;&#9;C36.919720,213.099396 41.462250,214.100464 45.196747,213.737839 &#10;&#9;C46.717709,213.590149 49.347759,213.882599 49.179211,211.831329 &#10;&#9;C48.954960,209.102142 46.343140,210.266098 44.750263,210.582733 &#10;&#9;C40.649895,211.397781 36.843651,210.945892 33.192192,208.863281 &#10;&#9;C30.664688,207.421722 29.384537,205.264465 28.990381,202.460251 &#10;&#9;C28.654510,200.070694 29.130156,198.443390 32.071743,199.002075 &#10;&#9;C37.911572,200.111221 43.628326,200.078735 49.142067,197.437607 &#10;&#9;C51.571857,196.273697 51.696484,198.748749 52.803822,200.223907 &#10;z"/>
  <path fill="#4E3835" opacity="1.000000" stroke="none" d="&#10;M335.613220,148.967209 &#10;&#9;C327.204651,158.439392 322.673035,169.810715 320.931213,182.423218 &#10;&#9;C320.302917,186.972672 317.114532,189.751373 313.874359,192.289825 &#10;&#9;C310.703400,194.774002 307.409454,197.322723 305.309998,200.571991 &#10;&#9;C302.035095,205.640396 298.387024,202.502258 294.846039,201.966354 &#10;&#9;C290.823059,201.357544 292.175629,197.979980 291.967987,195.571350 &#10;&#9;C291.600952,191.313705 291.623077,187.051788 291.692169,182.761536 &#10;&#9;C291.800873,176.008301 294.545776,171.309067 299.755554,167.732224 &#10;&#9;C310.854034,160.112350 322.226654,152.971237 335.613220,148.967209 &#10;z"/>
  <path fill="#4E3835" opacity="1.000000" stroke="none" d="&#10;M384.071472,121.192566 &#10;&#9;C382.334564,126.457123 380.552643,131.317505 381.102051,136.619629 &#10;&#9;C381.323914,138.760559 380.435883,140.547806 379.198425,142.145660 &#10;&#9;C374.291626,148.481476 369.088226,154.474457 361.760712,158.239655 &#10;&#9;C359.118195,159.597519 356.770966,161.464920 354.737549,163.736267 &#10;&#9;C353.470703,165.151276 352.294617,167.002335 349.873535,166.841736 &#10;&#9;C352.955444,145.567139 363.018280,128.940887 381.887360,118.111458 &#10;&#9;C382.678375,117.657486 383.663483,116.683182 384.546387,117.585518 &#10;&#9;C385.562469,118.623917 384.477142,119.746071 384.071472,121.192566 &#10;z"/>
  <path fill="#4D3835" opacity="1.000000" stroke="none" d="&#10;M176.786377,98.798080 &#10;&#9;C176.491959,93.602577 178.723236,89.716179 181.084259,85.886429 &#10;&#9;C182.683502,83.292343 183.915955,83.691895 185.978470,85.861008 &#10;&#9;C194.355179,94.670769 193.708298,104.441528 189.679367,114.733795 &#10;&#9;C188.103973,118.758247 186.697601,122.786812 186.808380,127.235634 &#10;&#9;C186.853653,129.053711 186.171188,131.127625 184.120926,131.526642 &#10;&#9;C182.218811,131.896851 182.272736,129.542603 181.280289,128.576218 &#10;&#9;C172.397049,119.926476 175.918716,109.373207 176.786377,98.798080 &#10;z"/>
  <path fill="#745851" opacity="1.000000" stroke="none" d="&#10;M287.844849,234.238571 &#10;&#9;C291.387848,236.797211 296.934692,236.523346 298.375122,239.856339 &#10;&#9;C299.652740,242.812607 297.717560,247.199402 297.067749,250.931564 &#10;&#9;C296.647827,253.343262 298.456451,256.855499 294.883209,257.829987 &#10;&#9;C290.896210,258.917328 286.578857,260.194672 282.472260,256.841370 &#10;&#9;C290.310486,255.215759 293.680847,250.222687 291.939301,243.354004 &#10;&#9;C291.684113,242.347717 291.450104,241.327499 290.153625,241.464020 &#10;&#9;C289.088654,241.576172 289.126221,242.563690 288.976379,243.369568 &#10;&#9;C287.002747,253.984726 286.845245,254.101181 276.240692,252.988678 &#10;&#9;C268.039459,252.128296 267.851471,251.753113 269.886627,243.507477 &#10;&#9;C270.966156,239.133698 272.156647,234.851547 274.694000,231.052887 &#10;&#9;C276.521790,228.316483 278.365723,226.899414 281.405670,229.799271 &#10;&#9;C283.180939,231.492706 285.477844,232.639282 287.844849,234.238571 &#10;z"/>
  <path fill="#CDB3A2" opacity="1.000000" stroke="none" d="&#10;M277.106934,216.748474 &#10;&#9;C276.495758,216.476624 276.257294,216.042969 276.008331,215.350098 &#10;&#9;C281.392120,215.806366 286.606934,215.415878 291.497040,212.734177 &#10;&#9;C293.421936,211.678574 294.835205,210.510361 293.787384,208.024780 &#10;&#9;C292.578552,205.157501 293.577942,205.005066 296.225403,205.703720 &#10;&#9;C304.116516,207.786163 311.007111,211.519241 317.044342,217.001785 &#10;&#9;C320.099335,219.776077 323.429962,222.246887 326.639984,224.858154 &#10;&#9;C326.006500,226.436661 324.607361,225.985336 323.631226,226.027771 &#10;&#9;C308.143585,226.700806 292.626343,227.430786 279.363953,217.049286 &#10;&#9;C278.899628,216.685837 278.114990,216.731628 277.106934,216.748474 &#10;z"/>
  <path fill="#9B8270" opacity="1.000000" stroke="none" d="&#10;M72.113098,304.125397 &#10;&#9;C80.382614,299.748749 88.643219,296.318909 97.415138,294.323547 &#10;&#9;C103.284592,292.988434 104.223404,293.791351 104.795219,299.765289 &#10;&#9;C105.031891,302.237885 104.712593,304.787537 105.146507,307.212585 &#10;&#9;C106.104614,312.567169 103.744148,314.827881 98.648552,314.888733 &#10;&#9;C94.515099,314.938110 90.430626,316.242279 86.285500,315.486023 &#10;&#9;C85.120857,315.273529 83.328178,315.370483 83.268494,313.541809 &#10;&#9;C83.225395,312.221039 84.455208,311.635834 85.544609,311.193909 &#10;&#9;C86.908966,310.640411 88.906639,310.226715 88.132492,308.341003 &#10;&#9;C87.159988,305.972137 85.076706,307.649475 83.855560,308.175903 &#10;&#9;C78.947441,310.291687 73.887627,310.422119 68.719437,310.021667 &#10;&#9;C67.431396,309.921814 66.094528,309.984039 64.944481,308.268097 &#10;&#9;C67.298683,306.891479 69.536621,305.582855 72.113098,304.125397 &#10;z"/>
  <path fill="#4D3835" opacity="1.000000" stroke="none" d="&#10;M166.005249,71.992416 &#10;&#9;C168.641876,67.433411 170.379272,62.997730 169.975143,57.069862 &#10;&#9;C174.172440,61.339771 176.505493,65.752792 178.566605,70.346062 &#10;&#9;C179.517868,72.465965 180.405273,74.615250 181.391327,76.718544 &#10;&#9;C182.068726,78.163437 182.508499,79.680237 181.291702,80.908524 &#10;&#9;C173.573578,88.699524 172.997955,98.594635 172.929520,108.671669 &#10;&#9;C172.923294,109.590080 173.263916,110.689407 172.223785,111.371559 &#10;&#9;C171.060165,111.551758 170.799042,110.591858 170.562408,109.904793 &#10;&#9;C168.243469,103.172203 166.276581,96.301880 163.628998,89.703682 &#10;&#9;C161.068207,83.321739 162.160660,77.748627 166.005249,71.992416 &#10;z"/>
  <path fill="#CDB3A2" opacity="1.000000" stroke="none" d="&#10;M55.926445,152.733398 &#10;&#9;C56.249359,165.801071 54.353424,178.327499 54.013279,190.933273 &#10;&#9;C53.951683,193.215958 53.353851,193.907379 50.863819,193.840668 &#10;&#9;C48.685966,193.782318 46.474545,194.976685 43.739613,195.774734 &#10;&#9;C45.983326,185.459488 41.658493,175.770523 42.868347,165.772949 &#10;&#9;C43.648659,159.324890 48.031513,153.230988 54.096992,151.265915 &#10;&#9;C54.994823,150.975052 55.712193,151.228271 55.926445,152.733398 &#10;z"/>
  <path fill="#4E3835" opacity="1.000000" stroke="none" d="&#10;M341.368408,171.421051 &#10;&#9;C336.321655,173.697144 332.043182,176.518250 327.949982,179.648300 &#10;&#9;C327.207550,180.216049 326.367523,181.262894 325.428131,180.353653 &#10;&#9;C324.988525,179.928131 325.041351,178.784439 325.167389,178.014771 &#10;&#9;C327.866455,161.531113 336.695526,149.813324 353.254883,142.674637 &#10;&#9;C349.883087,151.833588 348.337402,160.564758 344.624176,168.636032 &#10;&#9;C344.053528,169.876465 342.918854,170.652618 341.368408,171.421051 &#10;z"/>
  <path fill="#D0BAB7" opacity="1.000000" stroke="none" d="&#10;M275.213379,222.285553 &#10;&#9;C274.984283,220.915222 275.382751,219.995544 276.596497,219.194305 &#10;&#9;C286.058838,226.015671 296.274445,229.244766 307.943146,229.282303 &#10;&#9;C316.409485,229.309525 324.823914,229.565659 333.213715,228.291077 &#10;&#9;C334.265503,228.131287 335.343964,228.109314 335.899384,229.063553 &#10;&#9;C336.683929,230.411484 335.379669,231.232010 334.648712,231.949219 &#10;&#9;C331.145416,235.386581 326.432648,236.265717 321.942780,237.131760 &#10;&#9;C308.297424,239.763779 295.876251,236.460602 284.706757,228.371689 &#10;&#9;C281.732971,226.218079 278.746765,224.137115 275.213379,222.285553 &#10;z"/>
  <path fill="#1E1C1A" opacity="1.000000" stroke="none" d="&#10;M223.494019,175.912170 &#10;&#9;C218.252335,185.049149 213.781891,194.894333 206.015976,202.638351 &#10;&#9;C200.307846,208.330383 193.611771,211.402588 185.712738,211.900574 &#10;&#9;C177.456833,212.421097 169.184967,212.688354 160.454529,213.006256 &#10;&#9;C159.986420,212.559418 159.983871,212.172638 159.973724,211.495773 &#10;&#9;C160.537827,210.254623 161.487106,209.863510 162.488525,209.831619 &#10;&#9;C171.551376,209.543045 180.540222,208.010483 189.903320,208.256363 &#10;&#9;C190.293793,208.301514 189.568588,207.311356 189.726303,207.959106 &#10;&#9;C189.797760,208.252625 189.679749,208.369888 189.372269,208.310913 &#10;&#9;C180.146942,206.541473 176.341034,197.239105 181.167252,188.031555 &#10;&#9;C182.475647,185.535370 184.104034,183.206207 185.675049,180.397415 &#10;&#9;C186.207153,179.659256 186.480865,179.223358 186.951233,178.469116 &#10;&#9;C187.571655,177.864532 187.994873,177.610260 188.729736,177.173340 &#10;&#9;C189.005402,176.929840 189.006577,177.006073 188.968506,177.008057 &#10;&#9;C193.607117,170.185028 200.659485,167.037140 208.261139,165.155380 &#10;&#9;C212.829269,164.024536 216.709015,166.781403 219.014847,171.257080 &#10;&#9;C219.770447,172.723755 219.112656,175.088730 221.842499,175.662079 &#10;&#9;C222.461716,175.762894 222.756271,175.808243 223.494019,175.912170 &#10;z"/>
  <path fill="#4B3734" opacity="1.000000" stroke="none" d="&#10;M157.009369,42.961750 &#10;&#9;C158.739639,44.994938 160.232697,46.783028 161.868805,48.428902 &#10;&#9;C167.668640,54.263386 168.615036,59.536259 165.013184,67.055153 &#10;&#9;C163.661911,69.875969 162.140045,72.615059 160.022964,76.685310 &#10;&#9;C156.867569,60.541145 149.674469,47.111202 144.945877,31.831211 &#10;&#9;C151.054016,33.992466 153.739609,38.554108 157.009369,42.961750 &#10;z"/>
  <path fill="#C8AE9E" opacity="1.000000" stroke="none" d="&#10;M187.176147,178.841003 &#10;&#9;C185.424942,184.212601 181.180008,188.403107 180.795013,194.384964 &#10;&#9;C180.299057,202.091156 181.304932,203.928268 188.292999,207.122269 &#10;&#9;C189.162521,207.519714 190.033234,207.914566 191.786835,208.712708 &#10;&#9;C180.914154,210.231339 170.887405,210.520233 160.420441,211.092285 &#10;&#9;C157.821472,210.884979 158.630127,210.158096 159.613464,209.194977 &#10;&#9;C163.976837,204.921249 168.387405,200.689026 172.596786,196.266525 &#10;&#9;C177.500870,191.114182 181.775604,185.455917 185.530426,179.044800 &#10;&#9;C186.130356,178.785873 186.440506,178.699081 187.176147,178.841003 &#10;z"/>
  <path fill="#CDB3A2" opacity="1.000000" stroke="none" d="&#10;M29.326950,195.881897 &#10;&#9;C23.875648,199.618469 25.038202,207.653152 31.360596,211.367188 &#10;&#9;C33.692909,212.737289 35.501965,213.929062 35.115185,216.996826 &#10;&#9;C34.749691,219.895767 32.270565,220.551987 30.321295,221.538620 &#10;&#9;C28.026962,222.699890 25.752544,222.019089 24.050608,220.015198 &#10;&#9;C20.064949,215.322464 17.446764,210.075500 17.606518,203.732529 &#10;&#9;C17.760286,197.627197 30.094767,189.759201 35.918346,192.063004 &#10;&#9;C37.273727,192.599197 38.222519,193.522552 37.994881,195.069809 &#10;&#9;C37.727909,196.884445 36.269722,196.166412 35.225552,196.136871 &#10;&#9;C33.400383,196.085266 31.578117,195.930954 29.326950,195.881897 &#10;z"/>
  <path fill="#CCB2A1" opacity="1.000000" stroke="none" d="&#10;M20.589540,225.674347 &#10;&#9;C18.477173,228.823532 16.028757,231.717102 12.452276,230.731659 &#10;&#9;C8.671843,229.690033 7.100044,226.116333 6.800682,222.203323 &#10;&#9;C6.500029,218.273422 5.521305,214.347107 6.916342,210.421921 &#10;&#9;C7.725198,208.146057 8.825676,206.281158 11.395272,205.575546 &#10;&#9;C13.156656,205.091873 14.505507,205.273941 14.658048,207.270172 &#10;&#9;C15.054703,212.460999 17.584412,216.682220 20.525070,220.715530 &#10;&#9;C21.679266,222.298599 21.419575,223.785461 20.589540,225.674347 &#10;z"/>
  <path fill="#735750" opacity="1.000000" stroke="none" d="&#10;M279.544434,261.725281 &#10;&#9;C279.215729,263.427216 279.026642,264.733887 278.850403,266.042297 &#10;&#9;C277.364044,277.078217 272.471680,279.822632 261.526886,275.611572 &#10;&#9;C266.143890,271.212921 267.923767,265.672241 267.859894,259.533966 &#10;&#9;C267.831299,256.780426 268.624969,255.505707 271.523865,255.917343 &#10;&#9;C272.825104,256.102112 274.189453,256.171906 275.486115,255.999756 &#10;&#9;C279.980255,255.403137 281.557709,256.974915 279.544434,261.725281 &#10;z"/>
  <path fill="#4B3734" opacity="1.000000" stroke="none" d="&#10;M417.707916,97.101898 &#10;&#9;C417.074188,103.190414 412.775543,107.043831 408.457703,110.589180 &#10;&#9;C400.353271,117.243668 392.592743,124.205093 385.823334,132.305984 &#10;&#9;C384.253174,127.035576 388.865204,113.961632 393.652771,112.517441 &#10;&#9;C402.354401,109.892548 408.109894,103.268250 415.136566,98.376907 &#10;&#9;C415.814911,97.904716 416.516541,97.465927 417.707916,97.101898 &#10;z"/>
  <path fill="#C8AE9E" opacity="1.000000" stroke="none" d="&#10;M190.052338,168.020966 &#10;&#9;C187.861389,170.977280 185.623718,173.488510 183.967102,176.337570 &#10;&#9;C181.554413,180.487000 178.868958,179.584213 175.882950,177.318680 &#10;&#9;C172.453445,174.716660 170.574432,171.018341 168.858414,167.216827 &#10;&#9;C168.042572,165.409454 167.244217,163.594177 166.188751,161.222504 &#10;&#9;C173.368286,163.385681 180.413910,163.810928 187.399902,164.691910 &#10;&#9;C188.796707,164.868073 191.593369,164.595795 190.052338,168.020966 &#10;z"/>
  <path fill="#C4AB9C" opacity="1.000000" stroke="none" d="&#10;M222.277740,175.345459 &#10;&#9;C221.318619,176.685318 220.470078,177.653107 219.616211,178.626968 &#10;&#9;C219.391678,178.365616 219.044449,178.151810 219.026306,177.912979 &#10;&#9;C218.204147,167.102661 213.107162,163.905426 203.120499,167.916885 &#10;&#9;C197.982391,169.980774 193.708221,173.312744 189.274048,176.971100 &#10;&#9;C188.796936,176.913071 188.541077,176.739624 188.547119,176.729950 &#10;&#9;C193.292023,169.142029 196.052902,159.963806 205.102524,155.810471 &#10;&#9;C207.073395,154.905960 207.130829,155.031113 207.121246,157.520325 &#10;&#9;C206.310486,159.371170 204.322861,159.689194 203.447830,161.704575 &#10;&#9;C209.470749,161.371399 215.101273,162.392960 221.108490,163.149170 &#10;&#9;C221.641754,163.413040 221.838242,163.551987 222.152603,164.032120 &#10;&#9;C222.720032,167.902115 224.879791,171.411896 222.277740,175.345459 &#10;z"/>
  <path fill="#362621" opacity="1.000000" stroke="none" d="&#10;M264.615234,182.056549 &#10;&#9;C263.820709,181.768936 263.419312,181.466232 262.968933,180.975479 &#10;&#9;C263.377930,178.155273 261.518890,176.837906 259.802887,175.555756 &#10;&#9;C254.946991,171.927505 249.496979,169.608414 243.578629,168.288757 &#10;&#9;C242.447266,168.036499 240.441269,168.645248 240.400101,166.747513 &#10;&#9;C240.370804,165.397034 241.911835,164.700027 243.052643,163.998215 &#10;&#9;C249.037643,160.316177 255.894241,161.031387 260.624420,166.247375 &#10;&#9;C265.235626,171.332199 267.194916,177.874496 270.576050,184.241516 &#10;&#9;C267.721313,184.242447 267.064240,181.589722 264.615234,182.056549 &#10;z"/>
  <path fill="#FFFFFF" opacity="1.000000" stroke="none" d="&#10;M218.655411,382.837830 &#10;&#9;C216.981293,383.872406 215.531906,384.583984 214.202057,385.474091 &#10;&#9;C211.289520,387.423553 208.214294,387.781738 205.819183,385.145355 &#10;&#9;C203.754013,382.872223 205.259872,380.280945 206.528015,377.930054 &#10;&#9;C209.108017,373.147156 213.346191,370.817261 218.408249,369.564667 &#10;&#9;C219.059265,369.403595 219.789581,369.633636 220.103073,369.519318 &#10;&#9;C221.816528,368.894470 221.667007,373.120087 223.506851,370.884430 &#10;&#9;C224.583679,369.575958 225.530899,367.796082 224.946945,365.882996 &#10;&#9;C224.217453,363.493164 222.132660,364.066956 220.369934,363.974335 &#10;&#9;C220.053726,363.957703 219.745392,363.791260 219.357834,363.670410 &#10;&#9;C222.412643,361.643402 225.159988,361.591125 227.851822,364.328033 &#10;&#9;C230.567520,367.089172 228.315536,369.646912 227.420868,371.952362 &#10;&#9;C225.738632,376.287262 222.220947,379.403931 218.655411,382.837830 &#10;z"/>
  <path fill="#C4AFAC" opacity="1.000000" stroke="none" d="&#10;M171.296646,184.709213 &#10;&#9;C162.039642,179.236679 162.355316,169.783463 160.531799,161.177460 &#10;&#9;C168.001068,167.412247 168.071091,180.104584 179.684158,182.188354 &#10;&#9;C178.072311,187.587921 175.066544,187.032349 171.296646,184.709213 &#10;z"/>
  <path fill="#493532" opacity="1.000000" stroke="none" d="&#10;M198.762650,103.287857 &#10;&#9;C200.990738,106.755013 204.871628,110.035858 204.206879,113.238297 &#10;&#9;C203.637115,115.983208 199.091858,117.877449 196.355057,120.206985 &#10;&#9;C194.538254,121.753426 192.810043,123.403931 190.423004,124.639458 &#10;&#9;C191.751511,116.422150 195.692902,109.050423 196.041153,100.869904 &#10;&#9;C197.853546,100.691864 197.821991,102.254333 198.762650,103.287857 &#10;z"/>
  <path fill="#362621" opacity="1.000000" stroke="none" d="&#10;M222.679413,164.265778 &#10;&#9;C222.270462,164.373306 222.281738,164.308044 222.309372,164.326172 &#10;&#9;C218.653305,162.082626 214.450577,162.441040 210.410278,162.010742 &#10;&#9;C208.934814,161.853592 207.351471,162.279526 205.984894,161.612320 &#10;&#9;C204.365784,160.821838 204.804459,159.913147 206.580536,159.123230 &#10;&#9;C211.667542,157.356979 216.350601,155.783203 221.222641,154.680588 &#10;&#9;C224.618271,153.912079 227.644928,153.956436 229.647903,156.833572 &#10;&#9;C230.960251,158.718658 226.896744,163.056686 222.679413,164.265778 &#10;z"/>
  <path fill="#F37A25" opacity="1.000000" stroke="none" d="&#10;M120.170677,350.117615 &#10;&#9;C121.230827,352.372742 124.435837,352.797180 124.207489,355.956665 &#10;&#9;C122.632538,357.168121 123.114288,358.935303 122.094345,360.299774 &#10;&#9;C120.872490,361.190155 119.922226,361.909058 118.732628,362.902863 &#10;&#9;C115.276062,364.597473 113.409752,362.378937 111.113174,360.309906 &#10;&#9;C110.825424,360.075562 110.937996,360.068909 110.927094,360.124207 &#10;&#9;C110.785431,359.839783 110.583260,359.549835 110.064987,359.196899 &#10;&#9;C109.820503,359.083954 109.927399,359.082062 109.911850,359.133209 &#10;&#9;C109.226898,358.288940 108.803444,357.229645 107.867126,356.108307 &#10;&#9;C108.022858,353.599457 110.479134,353.799255 111.775749,352.177490 &#10;&#9;C111.999855,351.928802 112.005096,352.013275 111.963028,352.017853 &#10;&#9;C112.501328,351.577606 112.502365,350.804535 113.194534,350.064026 &#10;&#9;C113.472626,349.862579 113.490036,349.951477 113.444839,349.954437 &#10;&#9;C118.533966,349.860413 118.533966,349.860413 118.390091,356.854218 &#10;&#9;C118.906677,355.680908 118.411484,354.579742 118.498009,353.494019 &#10;&#9;C118.602310,352.185181 118.324493,350.773071 120.170677,350.117615 &#10;z"/>
  <path fill="#C4AB9C" opacity="1.000000" stroke="none" d="&#10;M271.608795,169.840500 &#10;&#9;C274.137573,170.020920 276.264709,170.180450 279.065063,170.390457 &#10;&#9;C276.479706,174.353302 274.208862,177.834045 271.663971,181.734863 &#10;&#9;C269.765472,177.674072 268.023041,173.947159 266.093323,169.819611 &#10;&#9;C267.996460,169.819611 269.601837,169.819611 271.608795,169.840500 &#10;z"/>
  <path fill="#110F0D" opacity="1.000000" stroke="none" d="&#10;M206.981277,158.732880 &#10;&#9;C206.141937,160.091003 204.924393,161.151566 207.705246,161.020004 &#10;&#9;C211.770111,160.827698 215.824432,160.949631 219.812088,161.987076 &#10;&#9;C220.817841,162.248734 221.672852,162.502609 222.208618,163.939896 &#10;&#9;C216.291595,163.932419 210.245361,163.532227 204.201477,163.099167 &#10;&#9;C202.943695,163.009048 201.150742,163.578415 200.679977,162.091675 &#10;&#9;C200.158508,160.444870 202.121582,160.175613 203.129944,159.485016 &#10;&#9;C204.074432,158.838150 205.166763,158.407104 206.550812,157.837189 &#10;&#9;C206.926315,158.001953 206.945023,158.210571 206.981277,158.732880 &#10;z"/>
  <path fill="#201C19" opacity="1.000000" stroke="none" d="&#10;M333.067169,455.847351 &#10;&#9;C331.236725,454.645966 329.599579,453.013184 330.613464,450.610809 &#10;&#9;C331.838409,447.708405 333.366333,444.179535 337.217896,445.151398 &#10;&#9;C341.345734,446.192993 341.379608,449.708557 340.085999,453.593750 &#10;&#9;C339.587524,453.977570 339.116760,453.986328 338.292816,453.982605 &#10;&#9;C336.703094,453.090393 337.224304,451.206970 335.839996,450.316223 &#10;&#9;C333.807678,451.088196 334.836792,453.008453 334.202423,454.651978 &#10;&#9;C333.770477,455.181366 333.484253,455.395203 333.067169,455.847351 &#10;z"/>
  <path fill="#493532" opacity="1.000000" stroke="none" d="&#10;M196.964081,151.959717 &#10;&#9;C199.327698,151.959610 201.254257,151.959610 203.180801,151.959610 &#10;&#9;C203.311722,152.302887 203.442627,152.646164 203.573532,152.989441 &#10;&#9;C201.237625,154.656128 198.865494,156.275131 196.581573,158.010239 &#10;&#9;C195.491943,158.838028 194.550583,159.108734 193.555191,158.007965 &#10;&#9;C192.318710,156.640564 191.019440,155.158737 191.201859,153.245056 &#10;&#9;C191.347351,151.718872 192.921539,152.034744 194.035950,151.973785 &#10;&#9;C194.864075,151.928482 195.696503,151.961624 196.964081,151.959717 &#10;z"/>
  <path fill="#FFFFFF" opacity="1.000000" stroke="none" d="&#10;M120.298141,349.919617 &#10;&#9;C118.607094,351.421265 118.545830,353.452942 119.189484,355.043549 &#10;&#9;C119.850937,356.678131 119.025993,357.887939 118.787270,359.202911 &#10;&#9;C118.674843,359.822235 116.871071,360.805420 116.523193,360.576385 &#10;&#9;C115.709511,360.040710 115.865173,358.916962 116.535667,358.021332 &#10;&#9;C119.267990,354.371552 119.063126,351.542816 113.823593,350.003082 &#10;&#9;C114.211800,347.150604 116.502235,347.421875 118.806374,347.754150 &#10;&#9;C119.120857,348.208862 119.294487,348.337891 119.547256,348.781616 &#10;&#9;C119.782265,349.274048 119.938133,349.451813 120.298141,349.919617 &#10;z"/>
  <path fill="#9D8471" opacity="1.000000" stroke="none" d="&#10;M334.402863,455.056946 &#10;&#9;C333.988831,454.820312 333.948242,454.650879 333.849060,454.529205 &#10;&#9;C332.214172,452.525299 332.825012,450.608673 334.099457,448.746338 &#10;&#9;C334.738312,447.812866 335.805664,447.637115 336.690460,448.019226 &#10;&#9;C339.186157,449.097229 337.882751,451.331635 337.997253,453.543030 &#10;&#9;C336.952026,454.568115 336.115387,455.575653 334.402863,455.056946 &#10;z"/>
  <path fill="#362621" opacity="1.000000" stroke="none" d="&#10;M164.768646,240.245941 &#10;&#9;C165.091766,243.524948 161.672272,245.065170 160.230133,248.046463 &#10;&#9;C159.675873,248.181290 159.362808,248.143112 158.577988,248.069611 &#10;&#9;C159.273727,244.689285 160.928833,241.762436 164.768646,240.245941 &#10;z"/>
  <path fill="#7F6B5C" opacity="1.000000" stroke="none" d="&#10;M321.222260,444.644165 &#10;&#9;C321.247650,442.568817 324.292664,439.274628 325.801392,439.402252 &#10;&#9;C326.172882,439.433655 326.728516,439.816528 326.806458,440.134247 &#10;&#9;C326.898773,440.510590 326.698944,441.173920 326.394592,441.395996 &#10;&#9;C324.821106,442.543884 323.173737,443.590454 321.222260,444.644165 &#10;z"/>
  <path fill="#F7F7F7" opacity="1.000000" stroke="none" d="&#10;M110.741890,360.458008 &#10;&#9;C113.149017,361.094055 115.472603,362.112579 118.144745,363.154419 &#10;&#9;C114.062706,368.496124 113.093475,362.211304 110.741890,360.458008 &#10;z"/>
  <path fill="#7F6B5C" opacity="1.000000" stroke="none" d="&#10;M47.248905,272.149567 &#10;&#9;C47.639446,270.437439 48.307323,269.515930 49.392586,271.178680 &#10;&#9;C50.297890,272.565674 50.462418,274.166351 49.516415,275.738739 &#10;&#9;C47.352570,275.600861 47.846416,273.681763 47.248905,272.149567 &#10;z"/>
  <path fill="#F7F7F7" opacity="1.000000" stroke="none" d="&#10;M122.062096,360.624084 &#10;&#9;C122.066353,359.147156 121.637581,357.950073 121.388443,356.665344 &#10;&#9;C120.863998,353.960876 122.391586,355.128632 123.816055,356.131531 &#10;&#9;C124.110748,357.328766 124.082253,358.328461 124.027191,359.591553 &#10;&#9;C123.960159,360.257050 123.765617,360.567749 123.151764,360.827667 &#10;&#9;C122.676460,360.828949 122.488945,360.802948 122.062096,360.624084 &#10;z"/>
  <path fill="#CCB2A1" opacity="1.000000" stroke="none" d="&#10;M111.623131,351.982178 &#10;&#9;C112.121536,354.492523 109.191254,354.073822 108.184387,355.996735 &#10;&#9;C108.159790,356.435150 108.284409,356.557343 108.223274,356.864014 &#10;&#9;C104.538231,352.452881 109.796036,353.462830 111.623131,351.982178 &#10;z"/>
  <path fill="#F37A25" opacity="1.000000" stroke="none" d="&#10;M122.991791,361.125824 &#10;&#9;C123.077179,360.587250 123.290367,360.319519 123.752090,359.953369 &#10;&#9;C125.354027,360.600494 124.959587,361.764221 124.726547,362.889343 &#10;&#9;C124.190895,362.391785 123.655251,361.894257 122.991791,361.125824 &#10;z"/>
  <path fill="#F7F7F7" opacity="1.000000" stroke="none" d="&#10;M108.133423,357.367188 &#10;&#9;C108.037514,357.048523 108.158890,356.678375 108.097031,356.495667 &#10;&#9;C109.608742,356.213776 109.910767,357.253357 109.942345,358.839111 &#10;&#9;C108.523972,359.593353 108.901077,358.056244 108.133423,357.367188 &#10;z"/>
  <path fill="#9B8270" opacity="1.000000" stroke="none" d="&#10;M187.747238,179.014114 &#10;&#9;C187.304276,179.041000 187.006912,179.012238 186.264877,178.928070 &#10;&#9;C186.268875,178.204788 186.717514,177.536896 187.456802,176.766953 &#10;&#9;C187.956924,176.922852 188.166397,177.180786 188.216400,177.910965 &#10;&#9;C188.117340,178.607819 188.062653,178.799576 187.747238,179.014114 &#10;z"/>
  <path fill="#D0BAB7" opacity="1.000000" stroke="none" d="&#10;M113.055862,349.671204 &#10;&#9;C113.176010,350.499481 112.879395,351.136414 112.251862,351.897888 &#10;&#9;C112.160332,351.174896 112.399719,350.327362 113.055862,349.671204 &#10;z"/>
  <path fill="#4B3734" opacity="1.000000" stroke="none" d="&#10;M417.960815,96.948776 &#10;&#9;C418.058502,96.700279 418.236450,96.535248 418.414368,96.370209 &#10;&#9;C418.449371,96.571846 418.484344,96.773491 418.363922,97.083656 &#10;&#9;C418.208496,97.192177 418.041046,97.032234 417.960815,96.948776 &#10;z"/>
  <path fill="#C4AB9C" opacity="1.000000" stroke="none" d="&#10;M188.307526,178.198517 &#10;&#9;C188.009293,178.096329 187.961655,177.809464 187.830734,177.093750 &#10;&#9;C187.988495,176.559891 188.229568,176.454880 188.738037,176.639862 &#10;&#9;C188.856308,177.291183 188.707230,177.652512 188.307526,178.198517 &#10;z"/>
  <path fill="#4E3835" opacity="1.000000" stroke="none" d="&#10;M336.004333,149.005249 &#10;&#9;C336.147217,149.086426 335.952545,148.225708 336.148193,148.948547 &#10;&#9;C335.990692,148.992599 336.000183,149.000229 336.004333,149.005249 &#10;z"/>
  <path fill="#F7F7F7" opacity="1.000000" stroke="none" d="&#10;M109.713440,359.461304 &#10;&#9;C110.182854,359.236816 110.545204,359.389648 110.911880,359.861023 &#10;&#9;C110.373863,360.472168 109.937492,360.357666 109.713440,359.461304 &#10;z"/>
  <path fill="#D0BAB7" opacity="1.000000" stroke="none" d="&#10;M119.588364,348.883057 &#10;&#9;C119.238319,349.116516 118.991272,348.939697 118.916245,348.322815 &#10;&#9;C119.239197,348.183472 119.440231,348.380127 119.588364,348.883057 &#10;z"/>
  <path fill="#201C19" opacity="1.000000" stroke="none" d="&#10;M244.551849,243.327240 &#10;&#9;C243.162140,243.346497 242.427567,245.714035 241.100662,244.201416 &#10;&#9;C240.149078,243.116669 241.703735,242.194321 242.456772,241.396851 &#10;&#9;C247.147430,236.429520 251.540970,234.971893 256.283142,237.590225 &#10;&#9;C249.905914,236.400940 249.987091,241.461014 247.971313,244.690353 &#10;&#9;C242.699051,253.136673 234.541992,258.460358 226.036133,262.912659 &#10;&#9;C211.672394,270.431152 195.957458,270.681580 180.201843,270.020691 &#10;&#9;C178.245132,269.938629 176.551834,269.213776 175.386520,267.732849 &#10;&#9;C169.791855,260.623077 167.572540,252.367111 166.691116,243.389923 &#10;&#9;C169.504242,243.541855 168.852417,245.282516 169.122818,246.417099 &#10;&#9;C170.550781,252.408905 172.058456,258.368530 175.233032,263.741211 &#10;&#9;C176.663254,266.161743 178.543716,267.821594 181.577423,267.906067 &#10;&#9;C194.956848,268.278625 208.221527,267.853577 220.868576,262.712646 &#10;&#9;C230.443787,258.820343 238.417175,252.756439 245.148010,244.549423 &#10;&#9;C245.310410,243.858032 245.522446,243.406754 245.076004,243.206528 &#10;&#9;C244.471786,242.935516 245.335907,243.149963 244.551849,243.327240 &#10;z"/>
  <path fill="#252321" opacity="1.000000" stroke="none" d="&#10;M255.254913,209.870483 &#10;&#9;C254.064209,214.067047 251.749512,217.096832 249.096710,219.895004 &#10;&#9;C240.229202,229.248398 229.058975,226.461365 220.767105,220.087540 &#10;&#9;C216.995422,217.188293 216.223465,212.392471 217.733139,207.712967 &#10;&#9;C220.692078,198.541092 225.319351,190.271820 232.515015,183.787567 &#10;&#9;C240.927292,176.206955 251.519608,179.731415 254.756821,191.224045 &#10;&#9;C256.427979,197.156906 256.641510,203.342743 255.254913,209.870483 &#10;z"/>
  <path fill="#252321" opacity="1.000000" stroke="none" d="&#10;M181.130768,236.893677 &#10;&#9;C178.754669,237.818481 176.757187,238.624893 174.776321,239.470306 &#10;&#9;C174.069550,239.771942 173.428787,239.726212 173.153595,239.009491 &#10;&#9;C173.022598,238.668304 173.239365,238.059113 173.497055,237.723846 &#10;&#9;C176.243484,234.150757 192.318985,231.056686 196.425797,233.290802 &#10;&#9;C196.523605,233.343979 196.530807,233.563675 196.822906,234.402634 &#10;&#9;C191.470840,234.304504 186.319260,234.697235 181.130768,236.893677 &#10;z"/>
  <path fill="#252321" opacity="1.000000" stroke="none" d="&#10;M181.493027,226.064697 &#10;&#9;C171.633682,222.934280 163.853226,218.486694 161.929062,214.769104 &#10;&#9;C164.444809,214.668152 165.987411,216.343292 167.752258,217.340729 &#10;&#9;C172.528198,220.039932 177.409103,222.466904 182.690765,224.040390 &#10;&#9;C183.545380,224.294998 184.883286,224.677933 184.383102,225.950226 &#10;&#9;C183.850998,227.303711 182.729645,226.402328 181.493027,226.064697 &#10;z"/>
  <path fill="#252321" opacity="1.000000" stroke="none" d="&#10;M165.010498,240.012268 &#10;&#9;C166.457474,238.302872 164.545624,237.855560 163.824387,237.106735 &#10;&#9;C160.191086,233.334396 158.009460,228.679535 155.731094,224.081329 &#10;&#9;C155.305878,223.223160 154.712341,222.103699 156.112381,221.614456 &#10;&#9;C157.144455,221.253769 157.444611,222.352158 157.799744,223.025345 &#10;&#9;C160.653473,228.434799 162.990143,234.208038 168.438446,237.746017 &#10;&#9;C169.019135,238.123138 169.550552,238.797928 169.043365,239.389709 &#10;&#9;C167.854889,240.776443 166.645676,238.987183 165.197968,239.604126 &#10;&#9;C164.988083,239.971008 164.990570,240.010818 165.010498,240.012268 &#10;z"/>
  <path fill="#14110F" opacity="1.000000" stroke="none" d="&#10;M154.267700,235.844147 &#10;&#9;C156.524994,236.037323 156.450607,237.336868 155.921646,238.608307 &#10;&#9;C155.581024,239.427032 154.619858,239.653030 153.894562,239.110870 &#10;&#9;C152.593246,238.138046 152.665878,237.011902 154.267700,235.844147 &#10;z"/>
  <path fill="#0F0C0B" opacity="1.000000" stroke="none" d="&#10;M183.888260,258.861389 &#10;&#9;C182.833939,260.246948 181.798401,260.615295 180.998322,259.195923 &#10;&#9;C180.584930,258.462585 180.643524,257.359467 181.481003,256.996490 &#10;&#9;C182.733856,256.453583 183.742142,256.922424 183.888260,258.861389 &#10;z"/>
  <path fill="#252321" opacity="1.000000" stroke="none" d="&#10;M191.215622,249.065384 &#10;&#9;C192.291672,250.042038 192.264908,251.010117 191.411911,251.720688 &#10;&#9;C190.902374,252.145172 190.079117,251.993835 189.772858,251.275330 &#10;&#9;C189.308670,250.186371 189.765320,249.412994 191.215622,249.065384 &#10;z"/>
  <path fill="#0F0C0B" opacity="1.000000" stroke="none" d="&#10;M312.599365,424.233795 &#10;&#9;C310.434052,420.921875 309.752991,417.498840 309.284302,414.043365 &#10;&#9;C309.109497,412.754456 309.209229,411.125549 311.048737,411.089996 &#10;&#9;C312.572388,411.060516 312.763702,412.514069 312.776825,413.649414 &#10;&#9;C312.845459,419.582947 315.874756,424.094574 319.899261,427.963013 &#10;&#9;C321.874146,429.861328 324.380096,432.092133 327.357819,430.854980 &#10;&#9;C330.805969,429.422302 330.115234,425.954041 329.953949,422.991272 &#10;&#9;C329.891205,421.838898 329.672241,420.683044 329.409119,419.555664 &#10;&#9;C328.144897,414.138977 328.117035,414.298553 333.515167,414.777802 &#10;&#9;C337.526245,415.133911 336.068207,412.637268 335.382935,410.603058 &#10;&#9;C334.921051,409.232025 332.689026,407.528625 335.140106,406.468414 &#10;&#9;C337.116943,405.613373 337.752350,407.997925 338.490356,409.363342 &#10;&#9;C341.058807,414.115265 340.036743,416.900330 334.952240,418.157837 &#10;&#9;C333.138275,418.606506 332.813599,419.349823 332.998901,420.818420 &#10;&#9;C333.143890,421.967712 333.612274,423.113281 333.561310,424.243530 &#10;&#9;C333.386597,428.117920 332.879059,431.866974 329.017273,434.118286 &#10;&#9;C325.552185,436.138428 322.930878,433.862915 320.289917,432.385010 &#10;&#9;C317.051483,430.572815 314.769714,427.664490 312.599365,424.233795 &#10;z"/>
  <path fill="#0F0C0B" opacity="1.000000" stroke="none" d="&#10;M286.007294,386.005371 &#10;&#9;C286.276398,385.117950 286.547943,384.206238 286.819458,383.294495 &#10;&#9;C290.295898,385.395752 294.182831,381.928101 297.424194,383.823059 &#10;&#9;C300.363098,385.541138 303.458038,389.863068 306.274994,387.737274 &#10;&#9;C309.048462,385.644318 305.549133,381.767578 304.164246,378.888336 &#10;&#9;C303.022034,376.513580 301.501923,374.323120 300.222443,372.010529 &#10;&#9;C299.729340,371.119293 299.455139,369.981842 300.459778,369.319519 &#10;&#9;C301.465088,368.656769 302.333801,369.324127 302.948517,370.201874 &#10;&#9;C306.393402,375.120575 309.499756,380.266144 310.529602,386.251038 &#10;&#9;C311.038208,389.206848 309.739777,393.136993 306.319611,391.748352 &#10;&#9;C299.896332,389.140411 292.487457,389.958344 286.317291,385.830353 &#10;&#9;C285.959991,385.980774 286.009735,385.981018 286.007294,386.005371 &#10;z"/>
  <path fill="#110F0D" opacity="1.000000" stroke="none" d="&#10;M47.461266,324.822052 &#10;&#9;C46.673271,319.735474 48.134228,314.823547 46.162090,310.178040 &#10;&#9;C45.592239,308.835693 45.338787,306.882233 43.674049,306.734650 &#10;&#9;C41.884228,306.575989 41.578766,308.567383 40.948429,309.853363 &#10;&#9;C39.169224,313.483307 38.507771,317.419922 37.939034,321.371490 &#10;&#9;C37.685242,323.134857 38.401257,325.499512 36.488716,326.375336 &#10;&#9;C33.929932,327.547150 33.857033,323.991272 31.968752,323.283325 &#10;&#9;C29.682451,326.386566 30.921926,329.726929 31.339893,332.908325 &#10;&#9;C31.684010,335.527618 32.557449,338.074707 33.131977,340.667999 &#10;&#9;C33.311836,341.479767 33.270283,342.385925 32.299744,342.736206 &#10;&#9;C31.333332,343.085052 30.558983,342.476196 30.322233,341.692505 &#10;&#9;C28.558744,335.854950 26.039114,330.072479 27.813490,323.782288 &#10;&#9;C28.508972,321.316803 29.829742,319.009399 32.910976,319.130951 &#10;&#9;C35.598991,319.236969 35.283535,317.055878 35.524837,315.702179 &#10;&#9;C36.149136,312.199982 37.352058,308.939636 39.119442,305.923431 &#10;&#9;C41.554707,301.767426 45.633381,301.907501 48.013542,306.041931 &#10;&#9;C50.986088,311.205444 51.258011,316.811401 50.617397,322.504303 &#10;&#9;C50.465687,323.852509 50.493546,326.296021 47.461266,324.822052 &#10;z"/>
  <path fill="#14110F" opacity="1.000000" stroke="none" d="&#10;M50.613831,335.379028 &#10;&#9;C56.021584,329.101715 63.076756,331.621948 69.484764,331.125244 &#10;&#9;C70.360611,331.057373 71.076317,331.610352 71.066559,332.618347 &#10;&#9;C71.056793,333.627533 70.295486,333.984070 69.453423,334.204803 &#10;&#9;C66.849106,334.887482 64.203865,334.979706 61.541046,334.714752 &#10;&#9;C59.020969,334.463928 56.587402,334.511841 54.578751,336.409912 &#10;&#9;C55.291500,338.581390 57.406132,337.759521 58.787346,338.451843 &#10;&#9;C59.670471,338.894501 60.883537,339.206787 60.622215,340.431274 &#10;&#9;C60.395893,341.491821 59.299210,341.991608 58.250164,341.803345 &#10;&#9;C54.607609,341.149536 50.854393,340.548248 50.613831,335.379028 &#10;z"/>
  <path fill="#0F0C0B" opacity="1.000000" stroke="none" d="&#10;M85.163857,347.144043 &#10;&#9;C80.309608,342.331390 80.883270,338.920532 86.699692,336.476166 &#10;&#9;C88.513397,335.713928 90.512932,335.392792 92.429047,334.875793 &#10;&#9;C93.729012,334.524994 95.371071,334.037354 95.716377,335.804657 &#10;&#9;C96.043625,337.479523 94.281952,337.723328 93.037956,338.113861 &#10;&#9;C91.148750,338.706940 89.217957,339.193329 87.382034,339.920044 &#10;&#9;C86.371475,340.320068 85.036827,340.824463 85.344658,342.333405 &#10;&#9;C85.660530,343.881744 86.949455,344.401917 88.352898,344.381256 &#10;&#9;C90.337776,344.352051 92.318741,344.116333 94.304001,344.027618 &#10;&#9;C95.327179,343.981842 96.469803,344.128113 96.671921,345.326447 &#10;&#9;C96.883751,346.582336 95.861710,346.980988 94.803001,347.100372 &#10;&#9;C91.720093,347.447937 88.657990,348.779999 85.163857,347.144043 &#10;z"/>
  <path fill="#F7F7F7" opacity="1.000000" stroke="none" d="&#10;M209.205353,194.964767 &#10;&#9;C204.811646,199.567215 201.969955,206.131210 194.313309,206.010086 &#10;&#9;C185.196579,205.865860 180.699173,200.215073 183.497147,191.670273 &#10;&#9;C187.147232,180.523285 194.977386,173.110703 205.914230,169.249298 &#10;&#9;C212.446472,166.942978 215.952682,169.838806 216.805527,176.669724 &#10;&#9;C217.553131,182.657623 214.912689,187.256256 211.570038,192.061874 &#10;&#9;C211.094925,192.169952 210.884079,192.060364 210.503906,191.638077 &#10;&#9;C209.715942,189.050980 211.386703,187.226807 211.556732,185.109375 &#10;&#9;C211.677322,183.607712 211.757843,182.084152 210.344971,181.062317 &#10;&#9;C208.871902,179.996948 207.477997,180.689270 206.204056,181.473999 &#10;&#9;C202.045441,184.035660 198.527939,187.186508 196.923843,192.012909 &#10;&#9;C196.387833,193.625641 195.972809,195.275955 197.326248,196.651489 &#10;&#9;C198.685974,198.033401 200.344040,197.634003 201.952393,197.088074 &#10;&#9;C203.991837,196.395828 205.617126,194.840805 208.092926,194.300598 &#10;&#9;C208.665802,194.403061 208.879456,194.512741 209.205353,194.964767 &#10;z"/>
  <path fill="#F7F7F7" opacity="1.000000" stroke="none" d="&#10;M211.046478,192.032181 &#10;&#9;C210.815765,193.176010 210.325760,194.072510 209.576660,195.138062 &#10;&#9;C209.121307,195.120834 208.925049,194.934586 208.433990,194.469345 &#10;&#9;C208.269821,193.074356 208.531631,192.029755 209.952637,191.365738 &#10;&#9;C210.442703,191.453781 210.614960,191.619308 211.046478,192.032181 &#10;z"/>
  <path fill="#010101" opacity="1.000000" stroke="none" d="&#10;M211.016937,377.932861 &#10;&#9;C212.136734,374.173065 214.876297,372.381927 217.895142,371.136963 &#10;&#9;C218.837387,370.748383 221.154800,370.010925 220.978287,372.744263 &#10;&#9;C220.845306,374.803558 214.397598,380.093872 212.366318,379.719849 &#10;&#9;C211.852325,379.625214 211.472702,378.800873 211.016937,377.932861 &#10;z"/>
  <path fill="#D1B6A5" opacity="1.000000" stroke="none" d="&#10;M244.534393,243.418030 &#10;&#9;C244.771347,242.812698 245.222229,242.493683 245.673126,242.174683 &#10;&#9;C245.693710,242.732681 245.714310,243.290665 245.488953,244.034546 &#10;&#9;C245.078094,244.048386 244.913208,243.876373 244.534393,243.418030 &#10;z"/>
  <path fill="#F8F8F8" opacity="1.000000" stroke="none" d="&#10;M220.072983,207.616837 &#10;&#9;C223.291702,199.652359 226.980713,192.469528 232.875717,186.588745 &#10;&#9;C240.042511,179.439316 248.506317,181.074005 251.743729,190.633850 &#10;&#9;C255.098999,200.541779 255.561249,210.167755 247.337509,218.388977 &#10;&#9;C240.916504,224.808044 228.973709,225.077820 222.448608,218.741730 &#10;&#9;C219.353073,215.735901 219.405243,211.922852 220.072983,207.616837 &#10;z"/>
  <path fill="#252321" opacity="1.000000" stroke="none" d="&#10;M210.380554,190.945374 &#10;&#9;C209.627579,192.065201 208.984711,192.842163 208.240540,193.904755 &#10;&#9;C205.881668,196.386169 203.586929,198.560364 200.237946,198.864151 &#10;&#9;C196.735809,199.181808 194.856567,197.615997 195.105560,193.990936 &#10;&#9;C195.463287,188.782913 202.749466,180.435074 207.878311,179.264359 &#10;&#9;C211.179550,178.510788 213.684998,181.331787 212.827805,185.195190 &#10;&#9;C212.410095,187.077805 211.291824,188.804962 210.380554,190.945374 &#10;z"/>
  <path fill="#211F1F" opacity="1.000000" stroke="none" d="&#10;M232.910919,206.803589 &#10;&#9;C233.472275,201.561279 235.390625,197.409317 239.460114,194.574097 &#10;&#9;C243.832687,191.527725 247.398987,193.170059 248.279144,198.473389 &#10;&#9;C249.270584,204.447220 247.410812,209.133286 243.150711,211.395462 &#10;&#9;C237.949890,214.157166 235.141876,213.007309 232.910919,206.803589 &#10;z"/>
  <path fill="#694D4A" opacity="1.000000" stroke="none" d="&#10;M199.921524,196.013535 &#10;&#9;C196.598816,194.535278 197.968628,192.360352 198.846466,190.564407 &#10;&#9;C200.475449,187.231644 203.241531,184.855377 206.306824,182.851105 &#10;&#9;C207.268463,182.222321 208.391922,181.579605 209.474411,182.492294 &#10;&#9;C210.313065,183.199402 210.265701,184.369934 209.964233,185.272324 &#10;&#9;C208.308090,190.229660 206.028885,194.686310 199.921524,196.013535 &#10;z"/>
  <path fill="#694D4A" opacity="1.000000" stroke="none" d="&#10;M245.972046,199.297836 &#10;&#9;C246.328659,204.014877 245.467194,207.719147 240.995483,209.567490 &#10;&#9;C239.359024,210.243927 237.759323,210.341629 236.380539,208.939072 &#10;&#9;C235.224258,207.762833 234.937180,206.504623 235.471466,204.853134 &#10;&#9;C236.467850,201.773300 237.759293,198.888046 240.482758,197.013123 &#10;&#9;C242.969650,195.301071 245.202393,195.125168 245.972046,199.297836 &#10;z"/>
</svg>